<svg width="220" height="36" viewBox="0 0 220 36" fill="none" xmlns="http://www.w3.org/2000/svg">
<path d="M23.0153 9.80833C23.0673 9.04977 22.8299 8.35686 22.4886 7.70041C22.2438 7.21902 21.8952 6.80327 21.4723 6.46046C21.1756 6.21976 20.8344 6.03012 20.4857 5.86236C20.0035 5.63625 19.4917 5.56332 18.965 5.51955C18.4012 5.4685 17.8448 5.54144 17.3181 5.71649C16.9027 5.84778 16.5095 6.03742 16.1609 6.31458C15.9606 6.47505 15.7603 6.64281 15.5748 6.81786C15.471 6.91997 15.3671 7.02938 15.2781 7.14608C15.0333 7.4816 14.8108 7.839 14.6253 8.21098C14.3953 8.67049 14.3063 9.15918 14.1654 9.64058C14.1357 9.74269 14.0912 9.83751 14.0467 9.92504C13.8835 10.246 13.5793 10.1584 13.3939 9.98339C13.3494 9.93962 13.3049 9.88857 13.2678 9.8448C13.112 9.64058 12.9043 9.62599 12.6743 9.69163C12.4963 9.74269 12.3257 9.80104 12.155 9.86668C11.7915 10.0126 11.6135 9.90315 11.4281 9.64787C11.3539 9.53846 11.2797 9.42905 11.1907 9.32694C11.0275 9.14459 10.7678 9.04978 10.5008 9.18836C10.345 9.26859 10.1521 9.29776 9.97408 9.32694C9.6996 9.3707 9.41029 9.39259 9.13582 9.43635C8.92811 9.46552 8.72781 9.43635 8.54236 9.34153C8.20854 9.17377 8.20112 8.7799 8.50527 8.56838C8.89843 8.29851 9.32869 8.10887 9.74411 7.89005C10.2263 7.64206 10.6788 7.3649 10.9978 6.91997C11.0942 6.78868 11.161 6.64281 11.2352 6.50422C11.339 6.31458 11.4281 6.11765 11.5393 5.9353C11.7174 5.65814 11.9028 5.38826 12.0957 5.12569C12.3257 4.81205 12.6075 4.53488 12.9117 4.2796C13.2455 3.99514 13.6238 3.75444 13.9873 3.50645C14.4844 3.17093 15.0407 2.94483 15.5897 2.70413C15.8938 2.57284 16.2054 2.46343 16.517 2.34673C16.8805 2.20815 17.1253 1.95286 17.2885 1.61005C17.3626 1.45688 17.4739 1.311 17.5555 1.16513C17.7039 0.895255 17.8967 0.654558 18.0822 0.413861C18.2009 0.26069 18.3418 0.129401 18.5125 0.0564625C18.7795 -0.0529453 18.9798 -0.016476 19.0466 0.282572C19.1208 0.618089 19.2098 0.946312 19.2469 1.28183C19.2914 1.63923 19.5065 1.84345 19.7884 2.00392C19.8923 2.06227 20.0109 2.09874 20.1222 2.12791C20.4412 2.21544 20.7602 2.29567 21.0718 2.41967C21.4946 2.59472 21.9174 2.75519 22.3254 2.974C22.8892 3.27305 23.4159 3.61586 23.9204 4.00243C24.358 4.33795 24.7512 4.71723 25.1147 5.12569C25.5895 5.66543 25.99 6.26353 26.2868 6.92727C26.5835 7.58371 26.7764 8.26204 26.858 8.96954C26.9025 9.39259 26.9247 9.81563 26.9025 10.2387C26.8728 10.7784 26.7764 11.3109 26.6354 11.836C26.5019 12.3174 26.3016 12.7696 26.0939 13.2146C25.9159 13.5865 25.6711 13.9367 25.4337 14.2795C25.1889 14.6223 24.9292 14.9505 24.6548 15.2641C24.4396 15.5121 24.1948 15.7309 23.9574 15.957C23.7275 16.1759 23.4975 16.3947 23.2527 16.5843C22.9189 16.8469 22.5554 17.0803 22.2216 17.3429C22.051 17.4742 21.8878 17.62 21.7468 17.7878C21.5465 18.0212 21.5465 18.2984 21.6726 18.5682C21.8878 19.0496 22.1548 19.5019 22.459 19.9249C22.6815 20.2312 22.9411 20.523 23.2156 20.7929C23.5643 21.143 23.9574 21.4347 24.3877 21.6827C24.9366 22.0036 25.5301 22.1714 26.1532 22.2954C26.806 22.4194 27.4292 22.3246 28.0523 22.1568C28.5493 22.0255 28.987 21.7848 29.3802 21.4785C29.944 21.0482 30.4039 20.523 30.7303 19.8957C30.9009 19.5675 31.0419 19.232 31.1457 18.8746C31.2718 18.4443 31.3163 18.0066 31.3163 17.5544C31.3163 17.1168 31.2421 16.701 31.1383 16.278C31.0122 15.782 30.7674 15.3444 30.4781 14.9359C30.2704 14.6442 30.0107 14.3816 29.7362 14.1409C29.484 13.9148 29.1873 13.7543 28.898 13.5793C28.7199 13.4698 28.5122 13.4042 28.3119 13.3386C28.1413 13.2802 27.9633 13.2291 27.7778 13.1927C27.5924 13.1562 27.4885 13.0468 27.4514 12.879C27.4143 12.7186 27.4811 12.5946 27.6072 12.4925C27.8223 12.332 27.8298 12.1205 27.7556 11.8944C27.7407 11.8579 27.7185 11.8214 27.7111 11.7777C27.6814 11.6756 27.6517 11.5734 27.6369 11.4713C27.6072 11.2306 27.6369 11.0118 27.8372 10.8222C27.941 10.7201 28.0078 10.5669 28.0746 10.4283C28.1562 10.2533 28.171 10.0636 28.1117 9.88127C28.1042 9.8448 28.0894 9.81563 28.082 9.77916C28.0152 9.54576 27.9262 9.32694 27.8817 9.07895C27.8298 8.75073 27.7482 8.4298 27.763 8.09428C27.763 8.03593 27.7407 7.97029 27.7407 7.91193C27.7333 7.81711 27.7333 7.72959 27.8298 7.67124C27.9188 7.62018 28.0226 7.62748 28.1191 7.7223C28.2526 7.84629 28.3935 7.97029 28.4974 8.11616C28.7496 8.45897 28.9796 8.81637 29.2244 9.17377C29.2911 9.26859 29.3727 9.36341 29.4469 9.45094C29.4692 9.48011 29.4989 9.4947 29.5211 9.52387C29.7733 9.91774 30.1739 10.1293 30.5448 10.3773C30.9528 10.6544 31.3534 10.9389 31.754 11.2233C32.2139 11.5516 32.6442 11.9236 33.0374 12.332C33.5344 12.8499 33.9646 13.4115 34.291 14.0534C34.5507 14.5639 34.7881 15.0818 34.9809 15.6215C35.0403 15.7966 35.1293 15.9643 35.2035 16.1394C35.3444 16.453 35.5892 16.6427 35.8934 16.7885C36.1679 16.9125 36.4349 17.0511 36.7094 17.1897C36.7836 17.2262 36.8503 17.2845 36.9097 17.3429C36.9319 17.3648 36.9616 17.3939 36.969 17.4231C37.0655 17.7149 36.9319 17.9556 36.6352 18.0431C36.3681 18.116 36.1085 18.2036 35.834 18.2546C35.5447 18.313 35.3667 18.4953 35.2628 18.736C35.107 19.108 34.9884 19.4946 34.8548 19.8738C34.7658 20.1218 34.6545 20.3625 34.5655 20.6105C34.4171 21.0336 34.1872 21.4128 33.9646 21.7994C33.7198 22.2225 33.4231 22.6163 33.1041 22.9883C32.3994 23.8052 31.5537 24.4471 30.5893 24.9358C30.4187 25.0233 30.2407 25.0889 30.0626 25.1546C29.803 25.2494 29.5508 25.3515 29.2837 25.4245C28.7645 25.563 28.2303 25.636 27.6962 25.6797C27.4588 25.6943 27.214 25.7089 26.9767 25.7089C26.4351 25.7089 25.9084 25.6433 25.3743 25.5485C24.677 25.4318 24.0242 25.1911 23.3937 24.8847C23.0376 24.7097 22.6741 24.52 22.3403 24.3085C22.0584 24.1262 21.8062 23.9 21.5465 23.6885C21.2943 23.477 21.0347 23.2728 20.8121 23.0394C20.5228 22.7403 20.2632 22.4194 20.0035 22.0985C19.8477 21.9088 19.7216 21.6973 19.5658 21.515C19.3656 21.2743 19.1504 21.0554 18.824 20.9898C18.6163 20.9533 18.4309 20.9898 18.2602 21.0919C18.149 21.1576 18.0451 21.2232 17.9413 21.2961C17.3997 21.6754 16.8582 22.0547 16.3834 22.5142C15.879 22.9956 15.4487 23.5426 15.1668 24.1845C14.8849 24.8264 14.7217 25.4974 14.7143 26.2049C14.7069 26.6279 14.7217 27.0364 14.8404 27.4449C14.9517 27.8241 15.1297 28.1815 15.3226 28.5316C15.4858 28.8307 15.7158 29.0787 15.9458 29.3194C16.3612 29.757 16.8656 30.0852 17.4368 30.2895C18.2009 30.5666 19.0021 30.676 19.8181 30.5156C20.278 30.428 20.7083 30.2603 21.1088 30.0123C21.5539 29.7351 21.9397 29.3996 22.2883 29.013C22.5554 28.714 22.7854 28.3858 22.9857 28.043C23.2379 27.6126 23.453 27.1531 23.5791 26.6644C23.6088 26.5404 23.6459 26.4237 23.6904 26.307C23.7868 26.0371 24.091 25.9788 24.2764 26.1976C24.4025 26.3435 24.5212 26.504 24.6325 26.6644C24.8105 26.9124 25.0108 26.9708 25.2927 26.8249C25.4411 26.7519 25.5895 26.679 25.7675 26.679C25.9604 26.6717 26.1087 26.7374 26.2423 26.8613C26.3609 26.9708 26.4722 27.0875 26.5835 27.2042C26.6948 27.3282 26.8209 27.3646 26.9841 27.3427C27.3476 27.299 27.6666 27.1166 28.0078 27.0072C28.2378 26.9343 28.4603 26.8468 28.7125 26.8613C28.7496 26.8613 28.7867 26.8613 28.8164 26.8686C29.0167 26.9124 29.076 27.0583 28.9425 27.2042C28.8015 27.3573 28.6383 27.4886 28.4751 27.6272C28.2155 27.846 27.9485 28.0648 27.6888 28.2836C27.6146 28.3493 27.533 28.4004 27.4663 28.4733C27.355 28.5827 27.2437 28.7067 27.1324 28.8234C26.8876 29.0787 26.6874 29.3704 26.5019 29.6841C26.3313 29.9685 26.1236 30.2384 25.9233 30.5083C25.7156 30.7854 25.5079 31.0553 25.2927 31.3179C24.907 31.7701 24.4545 32.164 23.9723 32.5214C23.5643 32.8204 23.1118 33.0538 22.6667 33.2799C22.5777 33.3237 22.4812 33.3529 22.3922 33.382C21.9471 33.5279 21.4946 33.6665 21.0495 33.827C20.686 33.9583 20.3893 34.1625 20.2483 34.5418C20.1074 34.9138 19.8923 35.2493 19.6623 35.5775C19.5659 35.7234 19.4101 35.8401 19.2543 35.9422C19.0837 36.0589 18.876 35.9932 18.8092 35.7963C18.7498 35.6286 18.7128 35.4462 18.6905 35.2712C18.6682 35.0232 18.6237 34.7898 18.505 34.5709C18.3938 34.3594 18.2157 34.2135 18.0229 34.0823C17.7484 33.8999 17.4294 33.827 17.1104 33.7686C16.8063 33.7176 16.5095 33.6373 16.2202 33.506C15.9828 33.3966 15.7306 33.3164 15.4932 33.207C15.241 33.083 14.9888 32.9517 14.7514 32.8058C14.2099 32.4849 13.7351 32.0837 13.2678 31.6607C13.0749 31.4856 12.9117 31.2668 12.7411 31.0699C12.5779 30.8803 12.4147 30.6906 12.2737 30.4864C12.0289 30.129 11.8138 29.757 11.6135 29.3704C11.4132 28.9766 11.2723 28.5681 11.1462 28.1451C11.0794 27.9044 10.9904 27.6637 10.9459 27.423C10.8939 27.1531 10.8643 26.8759 10.8494 26.5988C10.8272 26.256 10.8049 25.9131 10.8198 25.5776C10.8494 25.0671 10.8568 24.5492 11.0349 24.0532C11.1758 23.6666 11.2648 23.2655 11.4726 22.9008C11.6951 22.4923 11.9325 22.0912 12.2292 21.7192C12.7114 21.1065 13.2752 20.5741 13.8686 20.0635C14.0986 19.8665 14.3434 19.6842 14.566 19.4873C14.9146 19.1809 15.2633 18.8746 15.5897 18.5537C15.7529 18.3932 15.8567 18.1963 15.8345 17.9556C15.8271 17.8899 15.8271 17.8316 15.8345 17.7659C15.879 17.4377 15.7232 17.1824 15.5229 16.949C15.2855 16.6646 15.0259 16.3947 14.8033 16.1029C14.4473 15.6288 14.017 15.2277 13.5719 14.8557C13.2529 14.5931 12.9043 14.3743 12.5259 14.1846C11.8509 13.8491 11.1313 13.7689 10.3969 13.8127C9.89248 13.8418 9.41029 13.9585 8.95036 14.1774C8.41625 14.4253 7.95632 14.7536 7.56315 15.1766C7.19224 15.5778 6.90293 16.0373 6.70264 16.5551C6.56911 16.9198 6.43558 17.2772 6.39849 17.6565C6.35398 18.0139 6.33172 18.3713 6.35398 18.736C6.38365 19.108 6.39849 19.4873 6.48751 19.852C6.66555 20.5886 6.95486 21.2597 7.52606 21.7994C7.71893 21.9818 7.93406 22.1203 8.15661 22.2589C8.58687 22.5288 9.07647 22.6382 9.55866 22.7695C9.59575 22.7768 9.62542 22.7841 9.66251 22.7987C9.99633 22.8862 10.0779 23.1342 9.8628 23.3968C9.618 23.6958 9.61058 23.8271 9.79604 24.1699C9.97408 24.4908 10.0037 24.8118 9.81829 25.1473C9.75153 25.264 9.69218 25.3807 9.64026 25.5047C9.51415 25.7964 9.57349 26.0736 9.68477 26.3508C9.74411 26.4967 9.77379 26.6571 9.81088 26.8103C9.83313 26.8905 9.83313 26.9781 9.87022 27.051C10.026 27.4011 10.026 27.7658 10.0334 28.1378C10.0334 28.1961 10.0037 28.2982 9.96666 28.3128C9.89248 28.3347 9.78862 28.3347 9.72928 28.2909C9.60317 28.1961 9.47706 28.0794 9.39545 27.9481C9.11356 27.5032 8.79458 27.0875 8.43108 26.7155C8.17887 26.4529 7.88955 26.2268 7.60766 26.0007C7.28868 25.7454 6.95486 25.512 6.63587 25.264C6.28722 24.9941 5.93856 24.717 5.61216 24.4252C5.31543 24.1626 5.04095 23.8709 4.76648 23.5791C4.31397 23.105 3.95789 22.5653 3.65374 21.9891C3.54989 21.7994 3.45345 21.6025 3.35702 21.4128C3.26058 21.2232 3.1864 21.019 3.07512 20.8293C2.91934 20.5522 2.8229 20.2531 2.71163 19.9614C2.63745 19.7644 2.54843 19.5748 2.43715 19.3925C2.39264 19.3122 2.30363 19.2466 2.21461 19.2101C1.8437 19.0278 1.45053 18.8746 1.08704 18.6849C0.730961 18.5026 0.374886 18.313 0.152339 17.9556C0.0559022 17.7951 -0.0182806 17.6346 0.00397405 17.445C0.0113923 17.3356 0.00397405 17.2189 0.00397405 17.1095C0.0113923 16.9928 0.055902 16.9417 0.174594 16.9417C0.263613 16.9417 0.367468 16.9344 0.449068 16.9709C0.94609 17.1824 1.47278 17.1751 1.99206 17.1605C2.19235 17.1532 2.35555 17.0511 2.48908 16.9125C2.66712 16.7229 2.76356 16.4968 2.83774 16.2561C2.91192 16.0081 2.9861 15.7601 3.09738 15.5267C3.30509 15.0672 3.53505 14.6223 3.8392 14.2211C4.03207 13.9658 4.21011 13.696 4.42524 13.4626C4.64037 13.2146 4.90001 13.0103 5.12255 12.7696C5.33026 12.5435 5.56765 12.3685 5.81987 12.1934C6.04983 12.033 6.2798 11.8725 6.51718 11.7193C6.9326 11.4567 7.39253 11.2744 7.85246 11.0848C8.25305 10.9243 8.67589 10.8441 9.09873 10.7638C9.38804 10.7055 9.68477 10.6544 9.97408 10.6325C10.5453 10.5815 11.1165 10.5742 11.6877 10.669C12.2515 10.7638 12.8153 10.8441 13.3568 11.041C13.9577 11.2598 14.5437 11.5005 15.0704 11.8506C15.4265 12.0913 15.79 12.3174 16.1238 12.58C16.4057 12.7988 16.6579 13.0541 16.9101 13.3021C17.2588 13.6449 17.5778 14.0169 17.8671 14.418C18.008 14.615 18.1564 14.8119 18.3048 15.0016C18.646 15.4465 19.321 15.4902 19.7142 15.0745C19.9887 14.7827 20.3077 14.542 20.597 14.2649C20.8047 14.0679 21.005 13.8637 21.1979 13.6522C21.4204 13.4188 21.6355 13.1781 21.8358 12.9301C22.0139 12.7113 22.1622 12.4779 22.318 12.2518C22.3996 12.1278 22.4886 12.0111 22.5554 11.8798C22.8521 11.2088 23.0524 10.5304 23.0153 9.80833Z" fill="white"/>
<path d="M89.6146 10.3522C89.4077 10.2709 89.2007 10.1231 88.9864 10.1157C87.597 10.0566 86.2076 10.0123 84.8847 10.6035C83.9609 11.0174 82.9779 11.1578 81.9802 11.1208C80.1917 11.0543 79.0609 9.02192 79.9552 7.46991C80.5538 6.42784 81.4629 5.88094 82.6823 5.86616C84.3526 5.85138 86.0302 5.94746 87.6857 5.76269C90.5828 5.43751 93.4725 5.71835 96.3622 5.62227C97.2712 5.59271 98.1803 5.42273 99.0819 5.43012C100.264 5.43751 101.454 5.51142 102.637 5.63706C104.248 5.80704 105.829 6.13222 107.359 6.74564C108.335 7.13734 108.86 8.12028 107.825 9.16973C106.849 10.1453 105.704 10.5592 104.366 10.3744C103.354 10.234 102.349 9.96791 101.336 9.79793C100.287 9.62795 99.2223 9.50231 98.1655 9.37667C97.9733 9.3545 97.722 9.33972 97.589 9.44318C97.3895 9.591 97.1825 9.82749 97.1456 10.0492C97.1234 10.1822 97.4042 10.4483 97.5964 10.5C97.892 10.5887 98.2246 10.537 98.5424 10.5665C99.1336 10.6257 99.7323 10.6405 100.301 10.7809C101.425 11.0543 101.898 11.6456 102.009 12.7763C102.053 13.2124 102.075 13.6484 102.09 14.0844C102.149 17.0998 102.208 20.1151 102.252 23.1305C102.282 24.8746 101.624 26.4784 101.048 28.0674C100.575 29.3681 98.9489 29.9224 97.892 29.1316C96.4213 28.023 94.8323 28.2669 93.2212 28.3851C92.7852 28.4147 92.3565 28.5551 91.9279 28.5403C91.0706 28.5108 90.2798 28.7029 89.5038 29.0355C89.0308 29.2351 88.5356 29.3977 88.0404 29.5381C86.8062 29.8928 86.1632 29.6194 85.6607 28.4369C85.0473 26.9957 84.8255 25.4585 84.8625 23.8991C84.9068 22.0367 85.0399 20.1816 85.0694 18.3192C85.0842 17.3732 84.9881 16.4199 84.8921 15.4813C84.7295 13.8406 85.838 12.0447 87.4122 11.4978C87.8631 11.3426 88.3213 11.2317 88.7721 11.0765C89.0825 10.9656 89.3781 10.8104 89.6811 10.6774C89.6442 10.5665 89.6294 10.4557 89.6146 10.3522ZM93.6277 19.4056C94.3741 19.8269 95.1871 20.1595 95.8301 20.6842C96.9017 21.5637 96.5913 22.3766 95.6231 22.9901C94.0046 24.0099 92.2235 23.8547 90.4497 23.4261C90.4128 23.4187 90.3758 23.3965 90.3463 23.3744C89.8363 22.9457 89.1786 22.5688 89.1712 21.8297C89.1638 21.0833 89.7033 20.6325 90.3463 20.3147C90.5606 20.2038 90.7601 20.056 90.9671 19.923C90.6789 19.8047 90.4497 19.8491 90.228 19.8638C89.9472 19.8786 89.6737 19.8565 89.3929 19.886C88.6391 19.9525 88.2252 20.4108 88.2917 21.1424C88.3656 21.9258 88.4765 22.7092 88.6243 23.4852C88.8312 24.6012 88.8977 24.6751 90.0211 24.6381C91.3662 24.6012 92.7113 24.4682 94.0563 24.4164C94.7289 24.3943 95.4014 24.4755 96.0813 24.4829C97.0347 24.4903 97.2786 24.409 97.456 23.5222C97.6629 22.4875 97.6629 21.4085 97.7368 20.3516C97.7812 19.6939 97.3969 19.413 96.7834 19.4056C95.7044 19.3982 94.6476 19.4056 93.6277 19.4056ZM97.7664 14.8678C97.5964 14.7422 97.323 14.3801 97.0347 14.3727C96.6209 14.3579 96.3474 14.72 96.3696 15.1856C96.3917 15.6291 96.5987 15.9543 97.0569 16.0134C97.4116 16.0577 97.796 15.533 97.7664 14.8678ZM89.5259 15.2522C89.0308 15.1709 88.5652 15.0452 88.5134 15.6882C88.4986 15.873 88.7278 16.2351 88.883 16.2499C89.5555 16.346 89.6368 15.9025 89.5259 15.2522ZM93.3764 14.8678C93.3025 14.7939 93.1325 14.4688 92.9182 14.4392C92.4821 14.3801 92.4156 14.7865 92.4748 15.097C92.5265 15.363 92.6891 15.7917 92.8591 15.8138C93.3395 15.8951 93.3912 15.4886 93.3764 14.8678ZM93.9603 10.0418C93.5759 9.78315 93.2951 9.48753 93.1916 9.53926C92.9256 9.67968 92.7334 9.9753 92.5117 10.2044C92.7113 10.3448 92.933 10.6109 93.1103 10.5887C93.3542 10.5592 93.5686 10.3079 93.9603 10.0418Z" fill="white"/>
<path d="M199.12 22.0367C198.425 21.9406 197.893 21.8667 197.213 21.7706C197.147 22.7683 197.065 23.6626 197.043 24.5569C197.029 25.5102 197.095 26.4636 197.088 27.417C197.08 27.89 197.043 28.3704 196.925 28.8286C196.696 29.6859 196.289 29.9815 195.499 29.9815C194.856 29.9815 194.176 29.5159 193.991 28.8582C193.865 28.4073 193.821 27.9196 193.784 27.4466C193.688 26.2641 193.622 25.0742 193.518 23.8917C193.496 23.6774 193.37 23.4704 193.267 23.1896C192.439 23.67 192.04 24.4017 191.648 25.1111C191.035 26.2271 190.133 27.0327 189.098 27.72C188.936 27.8309 188.759 27.9713 188.574 27.9861C188.278 28.0156 187.864 28.06 187.694 27.8974C187.524 27.7348 187.458 27.2692 187.569 27.0401C187.975 26.1828 188.382 25.3033 188.958 24.5642C190.414 22.7092 191.596 20.6916 192.727 18.6444C192.838 18.4375 192.934 18.2158 193.001 17.9867C193.038 17.8462 193.008 17.6837 193.008 17.425C192.402 17.425 191.826 17.425 191.257 17.425C190.747 17.425 190.222 17.4693 189.727 17.3954C189.084 17.292 188.441 17.0555 188.33 16.3016C188.204 15.4517 188.286 14.6092 189.069 14.0475C190 13.3824 191.05 13.0572 192.188 13.0424C192.823 13.035 193.466 13.072 194.094 13.035C194.959 12.9833 195.824 12.8872 196.689 12.8059C197.679 12.7098 198.662 12.599 199.623 13.0128C200.458 13.375 200.731 13.9071 200.288 14.6979C199.94 15.3113 199.46 15.8582 198.987 16.3903C198.307 17.1515 198.329 17.5137 199.157 18.0901C199.482 18.3192 199.77 18.5927 200.103 18.807C200.812 19.2726 201.226 19.9082 201.234 20.7951C202.505 21.1203 203.636 20.7655 204.759 20.3812C205.202 20.226 205.476 19.317 205.321 18.8292C205.158 18.3118 204.774 18.1049 204.101 18.1788C203.747 18.2158 203.392 18.2823 203.037 18.2897C202.091 18.3045 201.625 17.9497 201.389 17.0776C201.138 16.139 201.33 15.4369 202.106 15.0674C202.919 14.6831 203.791 14.3801 204.656 14.151C205.469 13.9366 205.661 13.8406 205.698 12.998C205.727 12.3255 205.749 11.6308 205.609 10.9804C205.395 9.95314 205.934 9.32494 206.592 8.72631C206.791 8.54155 207.05 8.40852 207.294 8.28288C208.432 7.69164 209.09 7.92813 209.511 9.1254C209.807 9.9827 209.999 10.877 209.725 11.7934C209.637 12.0964 209.556 12.4142 209.541 12.7246C209.489 13.6336 209.829 13.9662 210.731 13.9145C211.085 13.8923 211.44 13.8258 211.787 13.7593C213.081 13.508 214.611 14.9565 214.285 16.6342C214.152 17.3215 213.657 17.6689 213.073 17.8093C212.194 18.0162 211.285 18.0975 210.383 18.2158C210.073 18.2601 209.755 18.2749 209.378 18.3045C209.267 18.6518 209.119 18.977 209.075 19.317C208.994 20.0634 209.312 20.4108 210.08 20.4403C212.26 20.529 214.441 20.5881 216.621 20.6916C218.003 20.7507 219.001 21.5046 219.725 22.6131C220.176 23.3005 220.057 23.8621 219.481 24.4312C218.402 25.5028 217.079 25.5841 215.712 25.2442C213.739 24.749 211.751 24.3943 209.711 24.5273C208.491 24.6086 207.287 24.919 206.075 24.9633C204.397 25.0225 202.764 25.2959 201.16 25.7615C200.502 25.9537 199.844 26.1754 199.283 25.5472C198.632 24.8155 198.329 23.9952 198.677 23.027C198.773 22.7536 198.906 22.5097 199.12 22.0367Z" fill="white"/>
<path d="M120.935 13.7667C120.44 13.9145 120.115 14.0179 119.775 14.1066C118.792 14.3801 117.765 13.8849 117.432 12.9833C117.041 11.8969 117.462 10.8252 118.496 10.4261C119.797 9.93098 121.157 9.65013 122.554 9.65753C122.872 9.65753 123.189 9.6797 123.507 9.63535C124.823 9.46537 124.867 9.3619 124.941 8.039C125 6.98215 125.54 6.06572 126.205 5.28971C126.826 4.57283 128.06 4.76499 128.555 5.62968C128.902 6.2357 129.139 6.93041 129.294 7.61034C129.664 9.2067 129.878 9.41364 131.548 9.31756C132.139 9.28061 132.731 9.21409 133.315 9.14019C134.32 9.00716 135.214 9.33973 136.034 9.8349C137.283 10.5887 137.239 12.0299 135.997 12.7837C135.206 13.2641 134.342 13.2937 133.462 13.2419C131.873 13.1459 131.748 13.1902 131.097 14.6314C130.018 17.0111 130.137 17.1146 131.866 18.7479C134.312 21.039 137.062 22.9162 140.062 24.409C140.845 24.8007 141.629 25.1924 142.346 25.6876C143.536 26.508 143.351 27.9935 142.028 28.6143C141.917 28.666 141.814 28.7325 141.703 28.7547C139.811 29.0873 137.919 29.1094 136.034 28.7103C135.724 28.6438 135.369 28.3778 135.192 28.1043C133.736 25.8576 131.652 24.1504 130.041 22.0441C129.782 21.7041 129.434 21.4159 129.102 21.1424C128.259 20.4551 127.823 20.4921 127.114 21.3715C125.761 23.0492 124.239 24.5495 122.473 25.7837C120.795 26.9588 118.962 27.7865 116.856 27.8383C116.582 27.8456 116.287 27.8383 116.035 27.7496C115.4 27.5279 114.713 27.3283 114.661 26.471C114.609 25.6063 114.69 24.786 115.562 24.3056C116.405 23.8474 117.27 23.4631 118.275 23.5444C119.272 23.6257 120.152 23.3079 120.935 22.6944C122.037 21.8445 123.16 21.0316 124.239 20.1595C124.734 19.7604 125.163 19.2209 125.03 18.5262C124.897 17.8389 124.379 17.4693 123.692 17.3289C123.263 17.2402 122.85 17.122 122.421 17.0185C121.083 16.7155 120.255 15.9173 120.832 14.5722C120.913 14.3949 120.891 14.1805 120.935 13.7667ZM125.251 13.5376C125.68 14.4983 126.33 14.7053 126.981 14.8235C127.402 14.9048 127.823 14.4688 127.86 14.0253C127.912 13.4932 127.535 13.2863 127.129 13.2937C126.56 13.3011 125.99 13.4415 125.251 13.5376Z" fill="white"/>
<path d="M64.5087 22.8792C66.7037 22.7018 68.5587 22.5171 70.4137 22.421C71.1897 22.3766 72.0027 22.4062 72.7639 22.5762C73.9612 22.8496 74.4416 23.8621 73.8725 24.9559C73.03 26.5819 71.7884 27.8309 70.059 28.533C69.9481 28.5773 69.8151 28.5625 69.719 28.6216C68.3148 29.5159 66.8515 29.3164 65.366 28.8655C63.9692 28.4443 62.5502 28.0747 61.1534 27.6535C59.7196 27.2174 58.2932 26.7445 56.8669 26.301C56.15 26.0793 55.4331 25.8428 54.7014 25.658C51.8339 24.9338 50.1119 22.3323 50.7032 19.4574C50.9988 18.031 51.4496 16.6268 51.8339 15.2152C51.893 14.9861 51.9669 14.757 52.0113 14.5205C52.1591 13.8036 51.8709 13.4636 51.154 13.508C50.9175 13.5228 50.6958 13.6188 50.4593 13.6632C49.3063 13.8553 48.3456 13.4489 47.7839 12.5324C47.3774 11.8599 47.4883 10.6257 48.1017 9.86445C49.0107 8.74109 50.1341 8.00204 51.6491 7.95769C53.4155 7.90596 55.1227 8.23853 56.8077 8.66718C58.4411 9.08844 58.9362 10.8178 57.835 12.126C56.8816 13.2567 56.0022 14.4244 55.5144 15.836C55.2409 16.6194 55.0118 17.4176 54.8345 18.2305C54.5758 19.413 55.7731 20.7212 56.8669 21.135C57.9015 21.5267 58.9732 21.8519 60.0522 22.081C61.6264 22.4358 63.2301 22.6575 64.5087 22.8792Z" fill="white"/>
<path d="M174.295 26.2197C173.393 25.9389 172.477 25.7024 171.598 25.3624C170.304 24.8673 169.033 24.3204 167.769 23.7587C165.959 22.9605 164.355 21.8889 163.505 20.0117C163.328 19.6274 163.254 19.1765 163.224 18.7479C163.098 16.7303 163.106 14.6979 162.847 12.695C162.699 11.5421 163.098 10.6848 163.645 9.82011C164.473 8.51199 165.419 8.43808 166.498 9.58362C166.772 9.87185 166.993 10.2044 167.2 10.5444C167.525 11.0691 167.969 11.2982 168.59 11.2908C169.624 11.2761 170.652 11.3204 171.686 11.3278C172.957 11.3352 173.963 12.0668 174.147 13.1311C174.31 14.0475 173.985 14.6979 173.076 14.9713C172.174 15.2448 171.228 15.3778 170.297 15.5773C169.41 15.7621 168.479 15.836 167.651 16.1612C166.616 16.5677 166.513 17.3141 167.304 18.1123C167.806 18.6149 168.368 19.0805 168.974 19.4426C170.297 20.2334 171.605 20.9503 173.29 20.8764C174.812 20.8099 176.357 21.1572 177.894 21.3494C178.242 21.3937 178.589 21.5341 178.892 21.7115C179.845 22.2436 179.971 23.1896 179.202 23.9878C177.88 25.3698 176.291 26.1532 174.295 26.2197Z" fill="white"/>
<path d="M158.051 8.05377C159.056 8.17202 159.913 8.54894 160.408 9.46537C160.903 10.3892 160.541 11.2243 160.009 12.0151C159.965 12.0816 159.913 12.1555 159.847 12.1851C157.807 13.2124 158.065 15.2078 157.991 16.952C157.873 19.8343 157.962 22.7166 158.324 25.5915C158.428 26.3971 158.258 27.2544 158.088 28.06C158.006 28.4517 157.674 28.8286 157.371 29.1168C156.868 29.5972 156.336 29.5381 155.789 29.0725C155.257 28.629 155.065 28.0452 155.028 27.3948C154.887 24.7047 154.777 22.0145 154.607 19.3317C154.525 18.1123 154.37 16.8929 154.163 15.6956C153.993 14.7053 153.912 14.7274 152.922 14.6166C152.419 14.5574 151.902 14.454 151.436 14.2544C150.505 13.8553 149.914 12.8946 150.017 11.9855C150.135 10.9509 150.483 10.101 151.665 9.78316C153.114 9.39885 154.525 8.85195 155.966 8.43069C156.646 8.23115 157.363 8.17202 158.051 8.05377Z" fill="white"/>
<path d="M195.757 7.7877C196.844 7.70641 197.767 7.99464 198.617 8.84455C199.349 9.57622 199.186 10.8917 198.314 11.2465C196.6 11.9338 194.811 12.2885 192.978 11.7712C192.136 11.5347 191.737 10.8104 191.796 9.91618C191.855 9.0441 192.609 8.16462 193.481 7.97986C193.902 7.89117 194.338 7.83205 194.774 7.7877C195.092 7.76553 195.41 7.7877 195.757 7.7877Z" fill="white"/>
</svg>
