<svg width="38" height="32" viewBox="0 0 38 32" fill="none" xmlns="http://www.w3.org/2000/svg">
<path d="M18.75 31.25V27.5521L30 16.3021L33.6979 20L22.4479 31.25H18.75ZM0 20.3125V17.1875H15.625V20.3125H0ZM35.9375 17.7604L32.2396 14.0625L33.75 12.5521C34.0278 12.2743 34.3924 12.1354 34.8437 12.1354C35.2951 12.1354 35.6597 12.2743 35.9375 12.5521L37.4479 14.0625C37.7257 14.3403 37.8646 14.7049 37.8646 15.1562C37.8646 15.6076 37.7257 15.9722 37.4479 16.25L35.9375 17.7604ZM0 11.7187V8.59375H24.4792V11.7187H0ZM0 3.125V0H24.4792V3.125H0Z" fill="white" fill-opacity="0.7"/>
</svg>
