<svg width="40" height="41" viewBox="0 0 40 41" fill="none" xmlns="http://www.w3.org/2000/svg">
<path d="M12.2541 2.03177C10.2647 2.11643 8.91022 2.43389 7.72503 2.89949C6.51868 3.38627 5.48164 4.02119 4.44461 5.05822C3.40757 6.09526 2.77265 7.1323 2.30704 8.35981C1.84143 9.545 1.54514 10.8995 1.43932 12.8889C1.35466 14.8783 1.3335 15.5133 1.3335 20.5715C1.35466 25.6297 1.37582 26.2646 1.46048 28.254C1.54514 30.2434 1.8626 31.5979 2.32821 32.7619C2.81498 33.9894 3.4499 35.0265 4.48694 36.0635C5.52397 37.1006 6.56101 37.7355 7.78852 38.2011C8.97371 38.6667 10.3282 38.963 12.3176 39.0688C14.307 39.1535 14.942 39.1746 20.0002 39.1746C25.0584 39.1535 25.6933 39.1535 27.6827 39.0476C29.6721 38.963 31.0266 38.6455 32.2118 38.1799C33.4393 37.6931 34.4764 37.0582 35.5134 36.0212C36.5504 34.9841 37.1853 33.9471 37.651 32.7196C38.1166 31.5344 38.4129 30.1799 38.5187 28.1905C38.6033 26.2011 38.6245 25.5662 38.6245 20.508C38.6033 15.4498 38.6033 14.8148 38.4975 12.8254C38.4129 10.836 38.0954 9.48151 37.6298 8.29632C37.143 7.06881 36.5081 6.03177 35.4711 4.99473C34.434 3.9577 33.397 3.32277 32.1695 2.85717C30.9843 2.39156 29.6298 2.09526 27.6404 1.98944C25.6298 1.92595 24.9949 1.90479 19.9367 1.90479C14.8785 1.92595 14.2435 1.94711 12.2541 2.03177ZM12.4658 35.7037C10.6457 35.6191 9.67212 35.3228 9.01604 35.0688C8.14831 34.7302 7.53455 34.3281 6.87847 33.672C6.22238 33.0159 5.82027 32.4021 5.48164 31.5344C5.22768 30.8783 4.91022 29.8836 4.82556 28.0847C4.7409 26.1164 4.71974 25.5238 4.69858 20.5503C4.69858 15.5767 4.69858 14.9842 4.78323 13.0159C4.86789 11.1958 5.16418 10.2222 5.41815 9.56616C5.75678 8.69844 6.15889 8.08468 6.81498 7.42859C7.47106 6.77251 8.08482 6.37039 8.95254 6.03177C9.60863 5.7778 10.6033 5.4815 12.4023 5.37568C14.3705 5.29103 14.9631 5.26986 19.9155 5.2487C24.889 5.2487 25.4816 5.2487 27.4499 5.33336C29.27 5.41801 30.2435 5.71431 30.8996 5.96828C31.7674 6.3069 32.4023 6.70902 33.0372 7.3651C33.6933 8.02119 34.0954 8.63494 34.434 9.50267C34.688 10.1588 34.9843 11.1535 35.0901 12.9524C35.1748 14.9207 35.1959 15.5133 35.2171 20.4656C35.2383 25.4392 35.2171 26.0318 35.1324 28C35.0478 29.8201 34.7515 30.7937 34.4975 31.4709C34.1589 32.3386 33.7568 32.9524 33.1007 33.6085C32.4446 34.2646 31.8309 34.6667 30.9631 35.0053C30.307 35.2593 29.3123 35.5556 27.5134 35.6614C25.5451 35.7461 24.9525 35.7672 19.979 35.7884C15.0266 35.8096 14.434 35.7884 12.4658 35.7037ZM27.6615 10.582C27.6615 11.8095 28.6774 12.8043 29.9049 12.8043C31.1324 12.8043 32.1483 11.7884 32.1271 10.5609C32.1271 9.33336 31.1113 8.33865 29.8838 8.33865C28.6562 8.33865 27.6615 9.35452 27.6615 10.582ZM10.4129 20.5503C10.4129 25.8413 14.7092 30.0953 20.0002 30.0953C25.27 30.0741 29.5451 25.799 29.5451 20.508C29.524 15.2381 25.2488 10.9418 19.9578 10.963C14.6668 10.9842 10.3917 15.2804 10.4129 20.5503ZM13.7568 20.5503C13.7568 17.1217 16.5293 14.3492 19.9578 14.3281C23.3864 14.3281 26.1801 17.1006 26.1801 20.5291C26.1801 23.9577 23.4076 26.7513 19.979 26.7513C16.5504 26.7513 13.7779 23.9789 13.7568 20.5503Z" fill="white" fill-opacity="0.7"/>
</svg>
