<svg width="128" height="43" viewBox="0 0 128 43" fill="none" xmlns="http://www.w3.org/2000/svg">
<path d="M101.905 10.371C101.905 10.7318 101.958 11.1057 102.102 11.4599C102.738 13.0343 104.359 14.0051 106.418 13.1851C106.91 12.9883 120.535 7.49785 120.535 7.49785C120.535 7.49785 115.169 21.1027 114.966 21.6078C114.185 23.556 115.123 25.3206 116.717 25.911C117.071 26.0422 117.439 26.1012 117.8 26.1012C119.105 26.0947 120.253 25.3272 120.817 23.7922C120.902 23.5626 127.613 5.13635 127.757 4.69685C127.842 4.43446 128 3.81785 128 3.39147C128.006 2.47967 127.665 1.62035 127.016 0.970933C126.367 0.328081 125.52 -0.00646508 124.622 9.46405e-05C124.182 9.46405e-05 123.828 0.0788114 123.29 0.249364C122.969 0.35432 105.671 6.7894 104.195 7.34042C102.719 7.89144 101.899 9.06563 101.905 10.371Z" fill="#ED1C24"/>
<path d="M69.4935 20.7616V20.368H59.0045V23.051H65.0985C63.5111 28.0757 57.8369 31.0276 57.8369 31.0276L59.3522 33.1464C59.3522 33.1464 69.4935 28.9613 69.4935 20.7616Z" fill="#454B52"/>
<path d="M66.1813 38.5712V33.3628H62.4619V39.2403C62.4619 41.077 63.9247 42.4021 65.932 42.4021H77.4574V39.7257H67.4867C66.5814 39.7257 66.201 39.3649 66.1813 38.5712Z" fill="#454B52"/>
<path d="M69.0732 25.3074V27.9969H73.4945V34.4583H77.2139V20.0793H73.4945V25.3074H69.0732Z" fill="#454B52"/>
<path d="M101.125 30.8635H104.844V19.9744H101.125V23.3657H97.2412V26.0159H101.125V30.8635Z" fill="#454B52"/>
<path d="M17.6986 33.1595H3.53613V39.2404C3.53613 41.0771 4.99895 42.4022 7.00622 42.4022H18.5185V33.9861C18.5185 33.5269 18.1512 33.1595 17.6986 33.1595ZM14.8057 39.7193H8.56088C7.65564 39.7258 7.26861 39.365 7.25549 38.5713V35.8425H14.8057V39.7193Z" fill="#454B52"/>
<path d="M18.7739 20.4009V20.2762H3.3389V22.9592H14.884C14.884 23.1363 14.884 23.3593 14.884 23.5758C14.884 26.0685 14.7594 27.7084 14.6938 28.3775H0V31.0604H22.6376V28.3775H18.0064C18.2229 27.5313 18.7739 24.9402 18.7739 20.4009Z" fill="#454B52"/>
<path d="M41.8838 34.5043C44.9735 33.8287 47.2562 31.5131 47.2562 28.7711C47.2562 27.2952 46.5937 25.9439 45.5048 24.9009H49.4537V22.218H41.8838V19.6859H38.171V22.218H30.6011V24.9009H34.5501C33.4612 25.9439 32.7986 27.2886 32.7986 28.7711C32.7986 31.5196 35.0814 33.8287 38.1776 34.5043V37.22H28.7119V39.903H51.3429V37.22H41.8838V34.5043ZM36.6229 28.6859C36.6229 26.8557 38.1514 25.3601 40.0274 25.3601C41.9035 25.3601 43.4319 26.8491 43.4319 28.6859C43.4319 30.5226 41.9035 32.0116 40.0274 32.0116C38.1514 32.0116 36.6229 30.5226 36.6229 28.6859Z" fill="#454B52"/>
<path d="M94.0139 30.6275H97.6152C97.4643 29.755 96.1458 22.7099 92.715 20.2697H88.5627L85.3682 30.7127H89.1006L91.226 23.1953C93.0234 25.2944 93.8958 29.9452 94.0139 30.6275Z" fill="#454B52"/>
<path d="M94.7552 39.8176C93.8106 39.8176 93.6401 39.5749 93.6401 38.7746V38.4401H104.851V32.7987C104.851 32.3133 104.496 31.9329 103.991 31.9329H89.9863V34.5174H101.289V35.9015H90.0782V39.2404C90.0782 41.1755 91.4688 42.4022 93.5483 42.4022H105.087V39.8176H94.7552Z" fill="#454B52"/>
</svg>
