<svg width="128" height="43" viewBox="0 0 128 43" fill="none" xmlns="http://www.w3.org/2000/svg">
<path d="M101.905 10.371C101.905 10.7318 101.958 11.1057 102.102 11.4599C102.738 13.0343 104.359 14.0051 106.418 13.1851C106.91 12.9883 120.535 7.49785 120.535 7.49785C120.535 7.49785 115.169 21.1027 114.966 21.6078C114.185 23.556 115.123 25.3206 116.717 25.911C117.071 26.0422 117.439 26.1012 117.8 26.1012C119.105 26.0947 120.253 25.3272 120.817 23.7922C120.902 23.5626 127.613 5.13635 127.757 4.69685C127.842 4.43446 128 3.81785 128 3.39147C128.006 2.47967 127.665 1.62035 127.016 0.970933C126.367 0.328081 125.52 -0.00646508 124.622 9.46405e-05C124.182 9.46405e-05 123.828 0.0788114 123.29 0.249364C122.969 0.35432 105.671 6.7894 104.195 7.34042C102.719 7.89144 101.899 9.06563 101.905 10.371Z" fill="#ED1C24"/>
<path d="M69.494 20.7615V20.3679H59.005V23.0508H65.099C63.5116 28.0756 57.8374 31.0275 57.8374 31.0275L59.3527 33.1463C59.3527 33.1463 69.494 28.9612 69.494 20.7615Z" fill="white"/>
<path d="M66.1813 38.5711V33.3627H62.4619V39.2402C62.4619 41.0769 63.9247 42.402 65.932 42.402H77.4574V39.7256H67.4867C66.5814 39.7256 66.201 39.3648 66.1813 38.5711Z" fill="white"/>
<path d="M69.0737 25.3074V27.9969H73.495V34.4583H77.2143V20.0793H73.495V25.3074H69.0737Z" fill="white"/>
<path d="M101.125 30.8635H104.844V19.9744H101.125V23.3657H97.2412V26.0159H101.125V30.8635Z" fill="white"/>
<path d="M17.6981 33.1594H3.53564V39.2403C3.53564 41.077 4.99846 42.4021 7.00574 42.4021H18.518V33.9859C18.518 33.5268 18.1507 33.1594 17.6981 33.1594ZM14.8052 39.7191H8.56039C7.65515 39.7257 7.26812 39.3649 7.255 38.5712V35.8423H14.8052V39.7191Z" fill="white"/>
<path d="M18.7739 20.4008V20.2761H3.3389V22.959H14.884C14.884 23.1362 14.884 23.3592 14.884 23.5757C14.884 26.0684 14.7594 27.7083 14.6938 28.3774H0V31.0603H22.6376V28.3774H18.0064C18.2229 27.5312 18.7739 24.9401 18.7739 20.4008Z" fill="white"/>
<path d="M41.8838 34.5042C44.9735 33.8285 47.2562 31.513 47.2562 28.771C47.2562 27.2951 46.5937 25.9438 45.5048 24.9008H49.4537V22.2178H41.8838V19.6858H38.171V22.2178H30.6011V24.9008H34.5501C33.4612 25.9438 32.7986 27.2885 32.7986 28.771C32.7986 31.5195 35.0814 33.8285 38.1776 34.5042V37.2199H28.7119V39.9028H51.3429V37.2199H41.8838V34.5042ZM36.6229 28.6857C36.6229 26.8556 38.1514 25.36 40.0274 25.36C41.9035 25.36 43.4319 26.849 43.4319 28.6857C43.4319 30.5224 41.9035 32.0115 40.0274 32.0115C38.1514 32.0115 36.6229 30.5224 36.6229 28.6857Z" fill="white"/>
<path d="M94.0144 30.6273H97.6156C97.4648 29.7549 96.1463 22.7097 92.7155 20.2695H88.5632L85.3687 30.7126H89.1011L91.2265 23.1952C93.0238 25.2943 93.8963 29.9451 94.0144 30.6273Z" fill="white"/>
<path d="M94.7552 39.8176C93.8106 39.8176 93.6401 39.5749 93.6401 38.7746V38.4401H104.851V32.7987C104.851 32.3133 104.496 31.9329 103.991 31.9329H89.9863V34.5174H101.289V35.9015H90.0782V39.2404C90.0782 41.1755 91.4688 42.4022 93.5483 42.4022H105.087V39.8176H94.7552Z" fill="white"/>
</svg>
