<svg width="25" height="25" viewBox="0 0 25 25" fill="none" xmlns="http://www.w3.org/2000/svg">
<path d="M20.6242 8.03021C20.4168 7.23165 19.8072 6.60169 19.0332 6.38868C17.629 6 12.0005 6 12.0005 6C12.0005 6 6.37102 6 4.96782 6.38868C4.1938 6.60169 3.5832 7.23165 3.37575 8.03021C3 9.47892 3 12.5005 3 12.5005C3 12.5005 3 15.5221 3.37575 16.9708C3.5832 17.7704 4.19282 18.3993 4.96782 18.6123C6.372 19 12.0005 19 12.0005 19C12.0005 19 17.629 19 19.0332 18.6123C19.8072 18.3983 20.4178 17.7694 20.6242 16.9708C21 15.5221 21 12.5005 21 12.5005C21 12.5005 21 9.47892 20.6242 8.03021ZM10.2 15.2859V9.71414L14.8764 12.5005L10.2 15.2859Z" fill="white" fill-opacity="0.5"/>
</svg>
