<svg width="119" height="30" viewBox="0 0 119 30" fill="none" xmlns="http://www.w3.org/2000/svg">
<path d="M102.171 29.2207C101.871 29.2807 101.571 29.3907 101.271 29.3907C100.561 29.3807 99.8614 29.3007 99.1514 29.2807C98.1914 29.2507 97.2214 28.3307 97.2414 27.3907C97.2614 26.6607 97.3414 25.9407 97.3614 25.2107C97.3814 24.4007 97.1614 24.0707 96.3614 24.0107C95.7614 23.9707 95.1214 24.0807 94.5314 24.2207C93.5714 24.4607 93.7614 25.3307 94.0614 26.1807C94.4414 27.2607 95.4314 27.7507 96.2114 28.4507C96.3714 28.6007 96.4714 28.8107 96.6014 29.0007C96.3914 29.1407 96.1814 29.3907 95.9714 29.3907C94.9714 29.3907 93.9614 29.4007 92.9814 29.2407C92.5614 29.1707 92.2014 28.7007 91.8214 28.4007C91.0314 27.7407 90.3014 26.9807 89.4314 26.4507C89.0414 26.2107 88.3514 26.3407 87.8314 26.4407C87.3714 26.5307 87.1114 26.9207 87.1514 27.4207C87.1914 27.8907 87.2214 28.3607 87.8614 28.4607C88.0214 28.4907 88.1314 28.7707 88.2714 28.9307C88.0814 29.0107 87.9014 29.1207 87.7114 29.1607C87.4514 29.2207 87.1814 29.2607 86.9214 29.2607C86.2914 29.2607 85.6614 29.2407 85.0314 29.2307C84.8914 29.2307 84.7614 29.2007 84.6214 29.2207C83.9014 29.2807 83.5614 28.9607 83.6314 28.4007C83.7314 27.6107 83.8614 26.8207 84.0514 26.0407C84.2414 25.2707 84.6614 24.5207 84.7014 23.7507C84.7514 23.0007 84.5014 22.2107 84.3014 21.4607C84.0714 20.6107 83.6514 19.8107 83.4714 18.9607C83.2014 17.7307 83.1414 16.4907 84.0014 15.3907C84.3914 14.8907 84.6114 14.2607 85.0314 13.8007C85.8814 12.8807 86.5914 11.8907 87.9314 11.4107C88.9514 11.0507 89.9614 10.9607 90.9714 10.7507C91.0314 10.7407 91.1014 10.7307 91.1614 10.7507C92.2214 11.1607 93.3314 11.2107 94.4514 11.3007C94.9814 11.3407 95.5114 11.4607 96.0514 11.4907C97.0114 11.5507 97.9714 11.6507 98.9214 11.6107C100.281 11.5507 101.651 11.4307 103.001 11.2407C104.301 11.0507 105.551 11.1407 106.821 11.4207C107.781 11.6307 108.781 11.9007 109.741 11.8407C110.841 11.7707 111.851 11.8907 112.771 12.4107C114.621 13.4607 116.481 14.4807 118.141 15.8307C118.571 16.1807 118.571 16.7507 118.011 17.0407C117.221 17.4607 116.371 17.7607 115.521 18.0507C114.281 18.4807 112.971 18.7307 111.791 19.2807C110.521 19.8707 109.381 20.7607 108.151 21.4507C107.501 21.8207 106.901 22.1907 106.501 22.8507C106.191 23.3607 106.111 23.7907 106.421 24.3407C106.731 24.8907 107.011 25.4907 107.161 26.1007C107.381 26.9807 108.001 27.4307 108.711 27.8507C109.051 28.0507 109.401 28.2107 109.731 28.4307C109.891 28.5407 110.081 28.7407 110.071 28.8807C110.061 29.0307 109.841 29.2707 109.681 29.2907C109.171 29.3707 108.661 29.3707 108.141 29.3807C107.891 29.3807 107.641 29.2807 107.401 29.3007C106.211 29.4307 105.401 28.8607 104.591 28.0607C103.881 27.3507 103.001 26.8207 102.171 26.2507C101.971 26.1107 101.651 26.0307 101.431 26.0807C101.001 26.1807 100.431 26.1707 100.381 26.8307C100.331 27.4807 100.721 28.0207 101.351 28.3107C101.671 28.4607 101.931 28.7507 102.221 28.9707C102.211 29.0407 102.191 29.1307 102.171 29.2207Z" fill="white"/>
<path d="M5.95133 3.70066C6.77133 3.25066 7.48133 3.02066 7.79133 2.30066C8.28133 1.15066 9.27133 0.700664 10.3713 0.420664C10.6913 0.340664 11.0613 0.510664 11.4113 0.520664C13.0213 0.570664 14.6413 0.790664 15.8813 1.83066C17.0213 2.79066 18.1613 3.78066 18.7913 5.26066C19.4013 6.68066 19.6813 8.07066 19.5613 9.62066C19.4513 11.0107 19.1413 12.2707 18.5013 13.5107C18.0113 14.4607 17.9713 15.4407 18.6713 16.4707C19.1713 17.2107 19.2713 18.2407 19.5213 19.1407C19.9213 20.6407 19.5313 22.1107 19.2613 23.5807C19.2413 23.6807 19.1913 23.7807 19.1413 23.8607C18.5913 24.7707 18.1513 25.7907 17.4413 26.5607C16.6513 27.4207 15.6713 28.1307 14.5013 28.5307C13.0713 29.0207 11.6113 29.2407 10.1313 29.2707C7.29133 29.3207 4.46133 29.2907 1.62133 29.2807C1.40133 29.2807 1.17133 29.2307 0.951333 29.2007C0.311333 29.1007 0.081333 28.7607 0.081333 28.0807C0.101333 19.4407 0.101333 10.8007 0.0913332 2.17066C0.0913332 1.82066 0.0413331 1.47066 0.0013331 1.12066C-0.0286669 0.670664 0.451333 0.170664 1.07133 0.150664C1.84133 0.130664 2.61133 0.240664 3.38133 0.240664C3.81133 0.240664 4.25133 0.190664 4.67133 0.110664C5.56133 -0.0593359 6.05133 0.470664 5.94133 1.38066C5.85133 2.09066 5.94133 2.81066 5.95133 3.70066ZM9.25133 17.2307C9.25133 17.2507 9.25133 17.2707 9.25133 17.2907C8.66133 17.2907 8.07133 17.2907 7.48133 17.2907C6.47133 17.2907 6.07133 17.5907 5.93133 18.5607C5.87133 19.0107 5.95133 19.4807 5.97133 19.9307C5.99133 20.2607 6.03133 20.5907 6.02133 20.9207C6.01133 21.3107 5.90133 21.7007 5.92133 22.0907C5.96133 23.2207 6.45133 23.8607 7.39133 23.8607C8.93133 23.8607 10.4913 23.9007 11.9913 23.6507C12.6713 23.5307 13.4513 22.8607 13.8013 22.2307C14.1513 21.6007 14.1013 20.7007 14.1013 19.9207C14.1013 18.6807 13.0813 17.5607 11.8713 17.4107C11.0013 17.3207 10.1213 17.2907 9.25133 17.2307ZM9.00133 5.96066C9.00133 5.99066 8.99133 6.03066 8.99133 6.06066C8.42133 6.06066 7.86133 6.06066 7.29133 6.06066C6.51133 6.07066 6.04133 6.52066 6.04133 7.29066C6.03133 8.34066 6.04133 9.40066 6.04133 10.4507C6.04133 11.4307 6.40133 11.7707 7.41133 11.7407C8.64133 11.7007 9.88133 11.6407 11.1113 11.6207C12.5713 11.6007 13.6013 10.8307 13.9513 9.44066C14.3313 7.96066 13.5713 6.61066 12.0913 6.32066C11.0713 6.12066 10.0313 6.07066 9.00133 5.96066Z" fill="white"/>
<path d="M61.1613 15.3307C61.1613 11.2707 61.1613 7.21069 61.1613 3.16069C61.1613 2.42069 61.1613 1.68069 61.1613 0.940686C61.1613 0.400686 61.6613 -0.0193144 62.1913 0.000685622C63.3813 0.0506856 64.5713 0.100686 65.7613 0.120686C66.7313 0.140686 67.1013 0.630686 66.8813 1.57069C66.7913 1.97069 66.7213 2.39069 66.7313 2.80069C66.7413 3.04069 66.8813 3.43069 67.0413 3.47069C67.2613 3.53069 67.6213 3.41069 67.8113 3.24069C68.3813 2.73069 68.9113 2.18069 69.4413 1.63069C70.4613 0.570685 71.7413 0.430686 73.1013 0.550686C73.5713 0.590686 74.0913 0.540686 74.5213 0.710686C76.1313 1.32069 77.7313 2.09069 78.7613 3.48069C79.5913 4.59069 80.2713 5.83069 80.4913 7.30069C80.8213 9.46069 80.5213 11.4507 79.4713 13.3607C78.9513 14.3007 78.3313 15.1207 77.4913 15.7907C76.9713 16.2007 76.9713 16.6607 77.3913 17.3107C78.4113 18.8707 79.0813 20.5607 79.1813 22.4307C79.2913 24.5607 79.9513 26.4407 81.3213 28.0907C81.5013 28.3107 81.6313 28.8507 81.5113 28.9707C81.2613 29.2107 80.8313 29.3707 80.4813 29.3807C79.4113 29.4007 78.3513 29.3007 77.2813 29.2907C76.4613 29.2807 75.7713 29.1107 75.4013 28.2707C74.9813 27.3407 74.3813 26.4607 74.1213 25.4907C73.8713 24.5607 73.9913 23.5507 73.8813 22.5807C73.7013 20.9907 73.0513 19.6407 71.9613 18.4307C70.7613 17.0907 69.2513 17.1607 67.7213 17.2107C67.4513 17.2207 67.0213 17.5907 66.9713 17.8507C66.8013 18.7007 66.7313 19.5707 66.7113 20.4307C66.6913 21.2207 66.8113 22.0107 66.8213 22.8007C66.8413 24.4207 66.8313 26.0407 66.8213 27.6607C66.8213 27.9707 66.7313 28.2707 66.7013 28.5807C66.6613 29.0907 66.3113 29.2607 65.8913 29.2707C64.6313 29.3007 63.3713 29.2907 62.1113 29.2707C61.4613 29.2607 61.1513 28.8407 61.1513 28.0207C61.1513 25.8507 61.1513 23.6907 61.1513 21.5207C61.1613 19.4507 61.1613 17.3907 61.1613 15.3307ZM69.3613 6.44069C68.8613 6.44069 68.3413 6.38069 67.8513 6.46069C67.5313 6.52069 67.0913 6.73069 66.9813 6.99069C66.7813 7.44069 66.7513 7.98069 66.7213 8.49069C66.6813 9.18069 66.7513 9.88068 66.7013 10.5707C66.6613 11.1207 67.0213 11.7307 67.5413 11.7307C69.2613 11.7407 70.9913 11.7707 72.7113 11.7207C74.0413 11.6807 74.5213 11.2907 74.8913 10.0107C75.0013 9.62068 75.0213 9.20069 75.0213 8.79069C75.0413 7.55069 73.9013 6.43069 72.6513 6.43069C71.5613 6.44069 70.4613 6.44069 69.3613 6.44069Z" fill="white"/>
<path d="M39.5913 23.2807C39.5913 21.6007 39.5913 19.9207 39.5913 18.2407C39.5913 12.5207 39.5913 6.80072 39.5913 1.08072C39.5913 0.40072 39.8413 0.14072 40.5213 0.14072C41.6113 0.13072 42.7113 0.14072 43.8013 0.14072C44.0313 0.14072 44.2813 0.16072 44.4813 0.0907202C45.0113 -0.10928 45.6413 0.49072 45.6413 1.10072C45.6413 4.08072 45.6413 7.07072 45.6413 10.0507C45.6413 10.2707 45.5313 10.5007 45.5713 10.7007C45.7613 11.7007 46.3113 11.9507 47.5513 11.7507C48.0713 11.6607 48.6113 11.7407 49.1413 11.7307C50.3713 11.7007 51.6013 11.7107 52.8213 11.5907C53.3913 11.5307 53.6213 11.0507 53.5113 10.4307C53.4513 10.1207 53.5813 9.78072 53.5813 9.46072C53.5913 6.77072 53.5813 4.08072 53.5813 1.39072C53.5813 0.39072 54.1213 0.0207199 55.1313 0.12072C56.1413 0.21072 57.1613 0.14072 58.1813 0.15072C59.2713 0.15072 59.5113 0.44072 59.4013 1.50072C59.3613 1.91072 59.4813 2.33072 59.4813 2.74072C59.4813 3.21072 59.3913 3.69072 59.3913 4.16072C59.3813 11.0707 59.3913 17.9907 59.3913 24.9007C59.3913 26.0407 59.4013 27.1807 59.3913 28.3207C59.3813 29.1207 58.8713 29.4307 58.0813 29.3407C57.1213 29.2407 56.1513 29.2907 55.1913 29.2907C53.7613 29.2807 53.4913 29.0507 53.4713 27.6107C53.4613 26.9907 53.5613 26.3707 53.5813 25.7507C53.6013 25.0807 53.5913 24.4007 53.5913 23.7207C53.5913 22.1407 53.5913 20.5707 53.5913 18.9907C53.5913 17.3307 53.1413 17.3607 51.8313 17.2207C50.7013 17.0907 49.5313 17.2907 48.3813 17.3007C47.8013 17.3107 47.2213 17.2407 46.6413 17.1807C46.1213 17.1207 45.8413 17.4307 45.7113 17.8407C45.5813 18.2507 45.5213 18.6907 45.5313 19.1207C45.5513 20.4807 45.6313 21.8407 45.6413 23.1907C45.6413 24.4207 45.5613 25.6507 45.5313 26.8807C45.5213 27.4107 45.5913 27.9507 45.5113 28.4607C45.3813 29.2907 45.1513 29.3507 44.3013 29.3107C43.1613 29.2507 42.0213 29.2607 40.8813 29.3007C39.7813 29.3407 39.5413 29.1307 39.5813 27.9707C39.6213 26.3907 39.5913 24.8407 39.5913 23.2807Z" fill="white"/>
<path d="M21.3013 14.5107C21.3013 10.0107 21.3013 5.51065 21.3013 1.02065C21.3013 0.220655 21.7513 0.000654653 22.5413 0.100655C23.5113 0.220655 24.5213 0.190655 25.5013 0.100655C26.5113 0.0106546 26.9913 0.500655 26.8313 1.49065C26.7413 2.06065 26.8414 2.67065 26.9114 3.26065C26.9314 3.41065 27.1913 3.65065 27.3113 3.64065C27.5513 3.61065 27.8214 3.47066 27.9814 3.29066C28.7514 2.41066 29.4513 1.47065 30.2613 0.620655C30.5213 0.340655 31.0213 0.160655 31.4213 0.150655C33.2913 0.100655 35.1613 0.120655 37.0313 0.130655C37.7913 0.130655 38.0414 0.550655 38.0014 1.33066C37.9613 2.30066 38.0613 3.28065 38.0714 4.26065C38.0714 4.67065 38.0413 5.09065 37.9413 5.49065C37.8213 5.98065 37.4013 6.06065 36.9513 6.05065C34.0713 6.05065 31.1913 6.06066 28.3113 6.04066C27.2113 6.04066 26.9913 6.27066 26.9013 7.16066C26.7813 8.31065 26.8013 9.48066 26.9013 10.6307C26.9713 11.4707 27.3813 11.7207 28.2613 11.7207C30.5313 11.7207 32.8013 11.7207 35.0714 11.7207C35.9413 11.7207 36.1713 11.9707 36.1913 12.8207C36.2213 13.9007 36.2713 14.9907 36.3113 16.0707C36.3413 16.8407 35.6713 17.3807 34.9213 17.2007C34.7413 17.1607 34.5513 17.1407 34.3613 17.1407C33.0813 17.1807 31.8113 17.2307 30.5313 17.2607C29.7713 17.2807 29.0114 17.2307 28.2514 17.2707C27.2414 17.3307 26.8513 17.7707 26.8513 18.7607C26.8513 19.8707 26.8413 20.9907 26.8613 22.1007C26.8713 22.5107 26.9114 22.9307 27.0014 23.3307C27.1214 23.8407 27.5213 23.9507 28.0113 23.9507C30.8513 23.9407 33.6814 23.9507 36.5214 23.9407C37.7814 23.9407 38.1113 24.3107 38.0813 25.5207C38.0613 26.3607 38.0814 27.2007 38.0714 28.0407C38.0613 28.9207 37.7313 29.2407 36.8613 29.2407C32.0013 29.2407 27.1413 29.2407 22.2913 29.2407C21.5413 29.2407 21.3013 29.0007 21.3013 28.2307C21.2913 23.6807 21.3013 19.0907 21.3013 14.5107Z" fill="white"/>
</svg>
