<svg width="25" height="25" viewBox="0 0 25 25" fill="none" xmlns="http://www.w3.org/2000/svg">
<path d="M9.02467 3.05843C8.10933 3.09738 7.48611 3.24344 6.9408 3.45767C6.38575 3.68164 5.9086 3.97377 5.43145 4.45092C4.9543 4.92807 4.66217 5.40522 4.44794 5.97001C4.23371 6.51532 4.09738 7.13854 4.04869 8.05389C4.00974 8.96923 4 9.26137 4 11.5887C4.00974 13.916 4.01948 14.2081 4.05843 15.1235C4.09738 16.0388 4.24344 16.662 4.45767 17.1976C4.68164 17.7624 4.97377 18.2396 5.45092 18.7167C5.92807 19.1939 6.40522 19.486 6.97001 19.7002C7.51532 19.9145 8.13854 20.0508 9.05389 20.0995C9.96923 20.1384 10.2614 20.1482 12.5887 20.1482C14.916 20.1384 15.2081 20.1384 16.1235 20.0897C17.0388 20.0508 17.662 19.9047 18.2074 19.6905C18.7721 19.4665 19.2493 19.1744 19.7264 18.6972C20.2036 18.2201 20.4957 17.7429 20.71 17.1781C20.9242 16.6328 21.0605 16.0096 21.1092 15.0943C21.1482 14.1789 21.1579 13.8868 21.1579 11.5595C21.1482 9.23215 21.1482 8.94002 21.0995 8.02467C21.0605 7.10933 20.9145 6.48611 20.7002 5.9408C20.4763 5.37601 20.1841 4.89886 19.707 4.42171C19.2298 3.94456 18.7527 3.65243 18.1879 3.4382C17.6426 3.22397 17.0194 3.08764 16.104 3.03895C15.1789 3.00974 14.8868 3 12.5595 3C10.2322 3.00974 9.94002 3.01948 9.02467 3.05843ZM9.12205 18.5512C8.28461 18.5122 7.83667 18.3759 7.5348 18.259C7.13555 18.1032 6.85316 17.9182 6.55129 17.6163C6.24942 17.3145 6.0644 17.0321 5.9086 16.6328C5.79174 16.331 5.64568 15.8733 5.60673 15.0456C5.56778 14.14 5.55804 13.8673 5.5483 11.5789C5.5483 9.29058 5.5483 9.01792 5.58725 8.11231C5.6262 7.27487 5.76253 6.82693 5.87938 6.52506C6.03519 6.12581 6.2202 5.84342 6.52207 5.54155C6.82394 5.23968 7.10634 5.05466 7.50559 4.89886C7.80746 4.78201 8.26513 4.64568 9.09284 4.59699C9.99845 4.55804 10.2711 4.5483 12.5497 4.53856C14.8381 4.53856 15.1108 4.53856 16.0164 4.57751C16.8538 4.61646 17.3018 4.75279 17.6036 4.86965C18.0029 5.02545 18.295 5.21047 18.5871 5.51234C18.889 5.81421 19.074 6.0966 19.2298 6.49585C19.3467 6.79772 19.483 7.25539 19.5317 8.0831C19.5706 8.98871 19.5804 9.26137 19.5901 11.54C19.5999 13.8284 19.5901 14.101 19.5512 15.0066C19.5122 15.8441 19.3759 16.292 19.259 16.6036C19.1032 17.0029 18.9182 17.2853 18.6163 17.5871C18.3145 17.889 18.0321 18.074 17.6328 18.2298C17.331 18.3467 16.8733 18.483 16.0456 18.5317C15.14 18.5706 14.8673 18.5804 12.5789 18.5901C10.3003 18.5999 10.0277 18.5901 9.12205 18.5512ZM16.1137 6.99247C16.1137 7.55726 16.5812 8.01494 17.1459 8.01494C17.7107 8.01494 18.1781 7.54752 18.1684 6.98274C18.1684 6.41795 17.701 5.96027 17.1362 5.96027C16.5714 5.96027 16.1137 6.42768 16.1137 6.99247ZM8.17749 11.5789C8.17749 14.0134 10.1543 15.9707 12.5887 15.9707C15.0134 15.9609 16.9804 13.9939 16.9804 11.5595C16.9707 9.13478 15.0036 7.15801 12.5692 7.16775C10.1348 7.17749 8.16775 9.15425 8.17749 11.5789ZM9.71605 11.5789C9.71605 10.0014 10.9917 8.72579 12.5692 8.71605C14.1467 8.71605 15.4321 9.9917 15.4321 11.5692C15.4321 13.1467 14.1565 14.4321 12.5789 14.4321C11.0014 14.4321 9.72579 13.1565 9.71605 11.5789Z" fill="white" fill-opacity="0.5"/>
</svg>
