<svg width="181" height="39" viewBox="0 0 181 39" fill="none" xmlns="http://www.w3.org/2000/svg">
<path d="M17.7988 20.9193L16.1924 3.18475C13.2768 4.19678 11.1805 6.9678 11.1805 10.2288C11.1805 11.0159 11.309 11.7709 11.5339 12.4857C10.313 11.6103 8.81906 11.0962 7.20464 11.0962C4.68261 11.0962 2.45776 12.3492 1.1084 14.2608L17.7988 20.9193Z" fill="#00AE4D"/>
<path d="M17.3329 22.5658L0 18.5016C0.0401597 21.5859 2.00798 24.4453 5.10831 25.4734C5.85528 25.7224 6.61832 25.8348 7.36529 25.8509C6.15247 26.7344 5.19667 27.9874 4.68262 29.5215C3.88746 31.915 4.37741 34.421 5.76693 36.3004L17.3329 22.5658Z" fill="#00AE4D"/>
<path d="M18.7707 23.3931L9.62231 38.6699C12.5781 39.5695 15.8953 38.5655 17.8229 35.931C18.2888 35.2965 18.6261 34.6057 18.8671 33.8989C19.341 35.3206 20.2405 36.6217 21.5497 37.5695C23.5818 39.0554 26.1199 39.3526 28.3367 38.6056L18.7707 23.3931Z" fill="#00AE4D"/>
<path d="M19.5659 20.9193L35.9511 13.9395C34.0877 11.4737 30.8106 10.3332 27.7103 11.3372C26.9633 11.5781 26.2806 11.9315 25.6702 12.3733C26.128 10.9436 26.1601 9.3613 25.6622 7.8272C24.8911 5.43368 23.0116 3.69878 20.7787 3L19.5659 20.9193Z" fill="#00AE4D"/>
<path d="M20.0557 22.4373L31.7662 35.8506C33.5333 33.3206 33.5975 29.8428 31.6859 27.2083C31.2201 26.5738 30.6739 26.0356 30.0715 25.5858C31.5735 25.5778 33.0835 25.1119 34.3927 24.1642C36.4328 22.6863 37.501 20.3651 37.4689 18.0278L20.0557 22.4373Z" fill="#00AE4D"/>
<path d="M59.762 5.934V22.602H62.03V5.934H59.762ZM57.53 12.342V14.268H60.302V12.342H57.53ZM56.036 6.222V21.81H58.25V6.222H56.036ZM48.188 16.878V18.84H49.358C51.5 18.84 53.264 18.786 55.28 18.39L55.1 16.446C53.12 16.806 51.41 16.878 49.358 16.878H48.188ZM48.188 7.86V17.814H50.564V9.786H54.344V7.86H48.188ZM73.2066 10.236V12.162H77.0946V10.236H73.2066ZM75.8346 5.952V18.102H78.2286V5.952H75.8346ZM67.2306 20.406V22.314H78.6066V20.406H67.2306ZM67.2306 17.076V21.54H69.6246V17.076H67.2306ZM68.1306 8.13V9.174C68.1306 11.28 66.9426 13.458 64.1886 14.358L65.3946 16.266C68.5986 15.204 70.0746 12.306 70.0746 9.174V8.13H68.1306ZM68.6346 8.13V9.174C68.6346 12.144 70.0566 14.916 73.1526 15.942L74.3226 14.07C71.6946 13.188 70.5606 11.118 70.5606 9.174V8.13H68.6346ZM64.8366 7.068V8.958H73.8006V7.068H64.8366ZM80.8552 13.764V15.672H95.9392V13.764H80.8552ZM87.2092 11.262V14.502H89.5852V11.262H87.2092ZM82.6732 10.506V12.396H94.2292V10.506H82.6732ZM82.6732 6.654V11.712H85.0492V8.526H94.1392V6.654H82.6732ZM88.3432 16.5C84.7432 16.5 82.5472 17.598 82.5472 19.56C82.5472 21.522 84.7432 22.62 88.3432 22.62C91.9432 22.62 94.1212 21.522 94.1212 19.56C94.1212 17.598 91.9432 16.5 88.3432 16.5ZM88.3432 18.3C90.5752 18.3 91.7092 18.714 91.7092 19.56C91.7092 20.424 90.5752 20.802 88.3432 20.802C86.1112 20.802 84.9772 20.424 84.9772 19.56C84.9772 18.714 86.1112 18.3 88.3432 18.3ZM103.714 13.944V16.266H106.108V13.944H103.714ZM97.3958 12.54V14.412H112.462V12.54H97.3958ZM99.2498 6.42V11.658H110.554V6.42H99.2498ZM108.196 8.274V9.822H101.608V8.274H108.196ZM99.1238 15.456V17.238H108.286V18.084H99.1418V21.216H101.5V19.74H110.644V15.456H99.1238ZM99.1418 20.694V22.494H111.076V20.694H99.1418ZM113.972 18.732V20.676H129.056V18.732H113.972ZM120.29 15.168V19.2H122.684V15.168H120.29ZM115.556 6.996V15.672H127.418V6.996H125.042V9.552H117.932V6.996H115.556ZM117.932 11.424H125.042V13.764H117.932V11.424ZM131.161 8.004V9.912H144.913V8.004H131.161ZM130.531 19.002V20.928H145.615V19.002H130.531ZM136.849 16.806V19.758H139.225V16.806H136.849ZM138.019 10.632C134.545 10.632 132.367 11.838 132.367 13.89C132.367 15.942 134.545 17.148 138.019 17.148C141.493 17.148 143.671 15.942 143.671 13.89C143.671 11.838 141.493 10.632 138.019 10.632ZM138.019 12.486C140.107 12.486 141.223 12.936 141.223 13.89C141.223 14.844 140.107 15.276 138.019 15.276C135.931 15.276 134.815 14.844 134.815 13.89C134.815 12.936 135.931 12.486 138.019 12.486ZM136.849 6.114V9.192H139.225V6.114H136.849ZM153.696 9.732V11.658H156.342V9.732H153.696ZM159.006 5.934V18.408H161.274V5.934H159.006ZM155.676 6.204V17.904H157.926V6.204H155.676ZM150.06 20.406V22.314H161.706V20.406H150.06ZM150.06 16.95V21.612H152.454V16.95H150.06ZM150.006 7.05V9.192C150.006 11.172 149.124 13.332 146.856 14.448L148.152 16.266C150.798 15.024 151.878 12.126 151.878 9.192V7.05H150.006ZM150.492 7.05V9.192C150.492 12.036 151.428 14.7 153.894 15.852L155.208 14.034C153.12 13.026 152.328 11.118 152.328 9.192V7.05H150.492ZM175.24 5.916V22.638H177.616V5.916H175.24ZM172.378 11.784V13.728H175.51V11.784H172.378ZM164.386 16.932V18.876H165.718C168.526 18.876 170.686 18.804 173.098 18.426L172.882 16.518C170.524 16.896 168.472 16.932 165.718 16.932H164.386ZM164.386 7.32V17.544H166.762V9.264H172.108V7.32H164.386ZM166.222 11.964V13.836H171.532V11.964H166.222Z" fill="white"/>
<path d="M48.1 36H50.168C52.599 36 53.919 34.504 53.919 31.941C53.919 29.378 52.599 27.937 50.113 27.937H48.1V36ZM49.123 35.164V28.773H50.036C51.928 28.773 52.874 29.895 52.874 31.941C52.874 33.987 51.928 35.164 50.036 35.164H49.123ZM56.9602 36.154C57.6972 36.154 58.3682 35.769 58.9292 35.296H58.9732L59.0612 36H59.8862V32.337C59.8862 30.852 59.2702 29.884 57.8072 29.884C56.8502 29.884 56.0142 30.302 55.4642 30.654L55.8602 31.358C56.3222 31.039 56.9492 30.709 57.6532 30.709C58.6322 30.709 58.8742 31.446 58.8742 32.216C56.3332 32.502 55.2112 33.151 55.2112 34.449C55.2112 35.527 55.9592 36.154 56.9602 36.154ZM57.2352 35.34C56.6522 35.34 56.1902 35.065 56.1902 34.383C56.1902 33.613 56.8612 33.118 58.8742 32.887V34.548C58.3022 35.065 57.8182 35.34 57.2352 35.34ZM64.1925 36.154C65.0065 36.154 65.6335 35.879 66.1615 35.538L65.7985 34.867C65.3585 35.164 64.8855 35.351 64.3135 35.351C63.1695 35.351 62.3995 34.526 62.3225 33.261H66.3485C66.3815 33.107 66.3925 32.898 66.3925 32.689C66.3925 30.973 65.5345 29.884 64.0165 29.884C62.6415 29.884 61.3325 31.083 61.3325 33.03C61.3325 34.988 62.5975 36.154 64.1925 36.154ZM62.3115 32.535C62.4435 31.358 63.1915 30.687 64.0275 30.687C64.9735 30.687 65.5125 31.336 65.5125 32.535H62.3115ZM67.2473 38.673C68.4243 38.673 68.8863 37.903 68.8863 36.693V30.027H67.8743V36.682C67.8743 37.408 67.7313 37.87 67.1373 37.87C66.9283 37.87 66.7193 37.804 66.5763 37.76L66.3783 38.519C66.5763 38.596 66.8843 38.673 67.2473 38.673ZM68.3693 28.795C68.7543 28.795 69.0403 28.542 69.0403 28.124C69.0403 27.739 68.7543 27.486 68.3693 27.486C67.9843 27.486 67.7093 27.739 67.7093 28.124C67.7093 28.542 67.9843 28.795 68.3693 28.795ZM73.3126 36.154C74.1266 36.154 74.7536 35.879 75.2816 35.538L74.9186 34.867C74.4786 35.164 74.0056 35.351 73.4336 35.351C72.2896 35.351 71.5196 34.526 71.4426 33.261H75.4686C75.5016 33.107 75.5126 32.898 75.5126 32.689C75.5126 30.973 74.6546 29.884 73.1366 29.884C71.7616 29.884 70.4526 31.083 70.4526 33.03C70.4526 34.988 71.7176 36.154 73.3126 36.154ZM71.4316 32.535C71.5636 31.358 72.3116 30.687 73.1476 30.687C74.0936 30.687 74.6326 31.336 74.6326 32.535H71.4316ZM79.3154 36.154C80.7784 36.154 82.0764 34.999 82.0764 33.03C82.0764 31.028 80.7784 29.884 79.3154 29.884C77.8414 29.884 76.5434 31.028 76.5434 33.03C76.5434 34.999 77.8414 36.154 79.3154 36.154ZM79.3154 35.318C78.2704 35.318 77.5774 34.394 77.5774 33.03C77.5774 31.644 78.2704 30.72 79.3154 30.72C80.3494 30.72 81.0424 31.644 81.0424 33.03C81.0424 34.394 80.3494 35.318 79.3154 35.318ZM83.6653 36H84.6663V31.666C85.2603 31.072 85.6893 30.753 86.2943 30.753C87.0863 30.753 87.4273 31.226 87.4273 32.348V36H88.4393V32.216C88.4393 30.698 87.8673 29.884 86.6133 29.884C85.7883 29.884 85.1723 30.335 84.6113 30.896H84.5783L84.4793 30.027H83.6653V36ZM92.9271 36H93.8511V31.545C93.8511 30.841 93.7741 29.873 93.7191 29.158H93.7631L94.4011 30.995L95.9301 35.197H96.6121L98.1411 30.995L98.7791 29.158H98.8341C98.7791 29.873 98.7021 30.841 98.7021 31.545V36H99.6481V27.937H98.4161L96.8871 32.26C96.7001 32.81 96.5241 33.371 96.3261 33.943H96.2821C96.0841 33.371 95.8971 32.81 95.6991 32.26L94.1481 27.937H92.9271V36ZM104.175 36.154C104.989 36.154 105.616 35.879 106.144 35.538L105.781 34.867C105.341 35.164 104.868 35.351 104.296 35.351C103.152 35.351 102.382 34.526 102.305 33.261H106.331C106.364 33.107 106.375 32.898 106.375 32.689C106.375 30.973 105.517 29.884 103.999 29.884C102.624 29.884 101.315 31.083 101.315 33.03C101.315 34.988 102.58 36.154 104.175 36.154ZM102.294 32.535C102.426 31.358 103.174 30.687 104.01 30.687C104.956 30.687 105.495 31.336 105.495 32.535H102.294ZM109.576 36.154C109.95 36.154 110.346 36.044 110.676 35.923L110.478 35.175C110.291 35.252 110.016 35.34 109.807 35.34C109.114 35.34 108.883 34.911 108.883 34.185V30.841H110.5V30.027H108.883V28.344H108.036L107.926 30.027L106.991 30.093V30.841H107.882V34.163C107.882 35.351 108.3 36.154 109.576 36.154ZM111.853 36H112.854V32.172C113.25 31.149 113.866 30.786 114.361 30.786C114.603 30.786 114.735 30.819 114.944 30.885L115.131 30.005C114.933 29.917 114.757 29.884 114.493 29.884C113.822 29.884 113.206 30.357 112.799 31.116H112.766L112.667 30.027H111.853V36ZM118.288 36.154C119.751 36.154 121.049 34.999 121.049 33.03C121.049 31.028 119.751 29.884 118.288 29.884C116.814 29.884 115.516 31.028 115.516 33.03C115.516 34.999 116.814 36.154 118.288 36.154ZM118.288 35.318C117.243 35.318 116.55 34.394 116.55 33.03C116.55 31.644 117.243 30.72 118.288 30.72C119.322 30.72 120.015 31.644 120.015 33.03C120.015 34.394 119.322 35.318 118.288 35.318ZM122.638 38.519H123.639V36.506L123.617 35.461C124.156 35.901 124.717 36.154 125.256 36.154C126.631 36.154 127.852 34.966 127.852 32.931C127.852 31.083 127.027 29.884 125.476 29.884C124.783 29.884 124.123 30.269 123.584 30.72H123.551L123.452 30.027H122.638V38.519ZM125.102 35.307C124.706 35.307 124.178 35.142 123.639 34.691V31.545C124.222 31.006 124.728 30.72 125.234 30.72C126.367 30.72 126.818 31.611 126.818 32.942C126.818 34.416 126.081 35.307 125.102 35.307ZM131.78 36.154C133.243 36.154 134.541 34.999 134.541 33.03C134.541 31.028 133.243 29.884 131.78 29.884C130.306 29.884 129.008 31.028 129.008 33.03C129.008 34.999 130.306 36.154 131.78 36.154ZM131.78 35.318C130.735 35.318 130.042 34.394 130.042 33.03C130.042 31.644 130.735 30.72 131.78 30.72C132.814 30.72 133.507 31.644 133.507 33.03C133.507 34.394 132.814 35.318 131.78 35.318ZM137.186 36.154C137.461 36.154 137.615 36.11 137.758 36.066L137.626 35.296C137.505 35.318 137.461 35.318 137.417 35.318C137.263 35.318 137.131 35.197 137.131 34.878V27.255H136.13V34.812C136.13 35.67 136.427 36.154 137.186 36.154ZM139.256 36H140.257V30.027H139.256V36ZM139.762 28.795C140.147 28.795 140.433 28.542 140.433 28.124C140.433 27.739 140.147 27.486 139.762 27.486C139.366 27.486 139.091 27.739 139.091 28.124C139.091 28.542 139.366 28.795 139.762 28.795ZM144.155 36.154C144.529 36.154 144.925 36.044 145.255 35.923L145.057 35.175C144.87 35.252 144.595 35.34 144.386 35.34C143.693 35.34 143.462 34.911 143.462 34.185V30.841H145.079V30.027H143.462V28.344H142.615L142.505 30.027L141.57 30.093V30.841H142.461V34.163C142.461 35.351 142.879 36.154 144.155 36.154ZM147.506 36.154C148.243 36.154 148.914 35.769 149.475 35.296H149.519L149.607 36H150.432V32.337C150.432 30.852 149.816 29.884 148.353 29.884C147.396 29.884 146.56 30.302 146.01 30.654L146.406 31.358C146.868 31.039 147.495 30.709 148.199 30.709C149.178 30.709 149.42 31.446 149.42 32.216C146.879 32.502 145.757 33.151 145.757 34.449C145.757 35.527 146.505 36.154 147.506 36.154ZM147.781 35.34C147.198 35.34 146.736 35.065 146.736 34.383C146.736 33.613 147.407 33.118 149.42 32.887V34.548C148.848 35.065 148.364 35.34 147.781 35.34ZM152.329 36H153.33V31.666C153.924 31.072 154.353 30.753 154.958 30.753C155.75 30.753 156.091 31.226 156.091 32.348V36H157.103V32.216C157.103 30.698 156.531 29.884 155.277 29.884C154.452 29.884 153.836 30.335 153.275 30.896H153.242L153.143 30.027H152.329V36ZM164.638 36.154C165.683 36.154 166.464 35.736 167.102 34.988L166.552 34.35C166.035 34.922 165.441 35.252 164.682 35.252C163.142 35.252 162.174 33.987 162.174 31.952C162.174 29.939 163.186 28.685 164.715 28.685C165.397 28.685 165.936 28.993 166.354 29.444L166.915 28.784C166.442 28.267 165.683 27.794 164.704 27.794C162.658 27.794 161.129 29.378 161.129 31.974C161.129 34.592 162.625 36.154 164.638 36.154ZM168.518 36H169.519V30.027H168.518V36ZM169.024 28.795C169.409 28.795 169.695 28.542 169.695 28.124C169.695 27.739 169.409 27.486 169.024 27.486C168.628 27.486 168.353 27.739 168.353 28.124C168.353 28.542 168.628 28.795 169.024 28.795ZM173.417 36.154C173.791 36.154 174.187 36.044 174.517 35.923L174.319 35.175C174.132 35.252 173.857 35.34 173.648 35.34C172.955 35.34 172.724 34.911 172.724 34.185V30.841H174.341V30.027H172.724V28.344H171.877L171.767 30.027L170.832 30.093V30.841H171.723V34.163C171.723 35.351 172.141 36.154 173.417 36.154ZM175.782 38.585C176.981 38.585 177.597 37.683 178.015 36.506L180.27 30.027H179.291L178.213 33.349C178.059 33.888 177.883 34.482 177.718 35.032H177.663C177.465 34.482 177.267 33.877 177.08 33.349L175.859 30.027H174.825L177.223 36.011L177.091 36.462C176.838 37.199 176.409 37.749 175.738 37.749C175.573 37.749 175.397 37.705 175.287 37.661L175.089 38.464C175.276 38.541 175.507 38.585 175.782 38.585Z" fill="white"/>
</svg>
