<svg width="74" height="32" viewBox="0 0 74 32" fill="none" xmlns="http://www.w3.org/2000/svg">
<path d="M16.2384 32C25.1991 32 32.4768 24.8447 32.4768 16.0035C32.4768 7.16198 25.1991 0 16.2384 0C7.26379 0 0 7.16198 0 16.0035C0 24.8447 7.26379 32 16.2384 32Z" fill="#A50034"/>
<path d="M15.5851 8.98035V23.0197H20.1112V21.7573H16.8896V8.98035H15.5851Z" fill="white"/>
<path d="M11.053 12.8109C12.1298 12.8109 12.9978 11.9475 12.9978 10.8931C12.9978 9.8379 12.1298 8.97119 11.053 8.97119C9.97616 8.97119 9.10815 9.8379 9.10815 10.8931C9.10815 11.9483 9.97616 12.8109 11.053 12.8109Z" fill="white"/>
<path d="M16.8892 2.61178C16.7195 2.6035 16.3968 2.59314 16.2426 2.59314C8.74734 2.59314 2.64734 8.61041 2.64734 15.9969C2.64734 19.5848 4.06111 22.9476 6.62186 25.4765C9.19311 27.9996 12.6051 29.3937 16.2426 29.3937C19.8663 29.3937 23.2774 27.9996 25.8441 25.4765C28.4111 22.9476 29.8316 19.5848 29.8316 15.9969V15.4008H29.2817H20.1239V16.6345H28.5368C28.5368 16.6615 28.5368 16.7924 28.5309 16.8264C28.1032 23.1411 22.7548 28.1425 16.2426 28.1425C12.9462 28.1425 9.85525 26.8785 7.52894 24.5829C5.19506 22.2968 3.90902 19.2513 3.90902 15.9965C3.90902 12.7604 5.19506 9.69919 7.52894 7.40604C9.85525 5.11497 12.9462 3.85095 16.2426 3.85095C16.3846 3.85095 16.73 3.85095 16.8892 3.85924V2.61178Z" fill="white"/>
<path d="M44.6889 5.38673H39.8094V26.2168H54.7967V22.1621H44.6889V5.38673V5.38673ZM65.5308 18.2789H69.5049V21.921C68.7722 22.1961 67.3433 22.4703 65.9837 22.4703C61.592 22.4703 60.1291 20.2708 60.1291 15.8034C60.1291 11.5432 61.5223 9.03132 65.914 9.03132C68.3546 9.03132 69.7486 9.78783 70.8972 11.2317L73.9311 8.48113C72.0833 5.87105 68.8411 5.08057 65.8098 5.08057C58.9766 5.08057 55.3874 8.75788 55.3874 15.7686C55.3874 22.7454 58.6288 26.5259 65.7753 26.5259C69.0512 26.5259 72.2581 25.7014 74 24.4987V14.394H65.5308V18.2789Z" fill="#666464"/>
</svg>
