<svg xmlns="http://www.w3.org/2000/svg" width="250.522" height="299.041" viewBox="0 0 250.522 299.041">
  <g id="circle_txt" transform="translate(-339.67 -578.313)">
    <g id="그룹_1" data-name="그룹 1">
      <path id="패스_1" data-name="패스 1" d="M345.028,626.635c3.808,4.275,11.556,5.232,15.751,4.1l.059,1.2a20.09,20.09,0,0,1-13.965-2.364,20.3,20.3,0,0,1,1.156,14.4l-1.238-.2c1.539-4.119,1.307-12.011-2.6-16.394l-4.525-5.08.832-.742ZM350,609l21.145,23.739-.887.79-21.145-23.739Z" fill="#fff"/>
      <path id="패스_2" data-name="패스 2" d="M389.165,606.377l-13.024,5.717-5.7-12.99,13.024-5.717Zm-6.337-11.57L371.914,599.6l4.861,11.079,10.914-4.79ZM404,613.037l.435.99-19.057,8.366-3.821-8.705,1.087-.477,3.386,7.715Zm-3.53-5.174-1.088.477-9.276-21.134,1.088-.477Z" fill="#fff"/>
      <path id="패스_3" data-name="패스 3" d="M414.146,603.845c5.982-.6,14.186-1.423,21.2-3.284l.236.916c-7.242,2.1-15.231,2.9-21.071,3.488Zm16.995-15.275c.427,4.264-2.62,7.428-7.493,7.916-4.908.493-8.523-2-8.952-6.267s2.621-7.427,7.53-7.919C427.1,581.812,430.713,584.308,431.141,588.57Zm-15.3,1.534c.341,3.4,3.541,5.724,7.7,5.308,4.12-.414,6.8-3.324,6.454-6.726-.345-3.44-3.541-5.725-7.66-5.311C418.177,583.791,415.5,586.665,415.844,590.1Zm20.889-11.791,3.173,31.633-1.182.118-3.172-31.633Z" fill="#fff"/>
      <path id="패스_4" data-name="패스 4" d="M493.912,616.316c-1.127,3.154-5.363,3.666-11.465,1.485-6.07-2.168-9.021-5.25-7.894-8.4,1.138-3.187,5.375-3.7,11.443-1.531C492.1,610.048,495.051,613.13,493.912,616.316Zm-14.59-13.74c-3.8-1.356-5.615-4.185-4.512-7.271s4.3-4.121,8.1-2.764c3.764,1.344,5.581,4.174,4.48,7.26S483.086,603.922,479.322,602.576Zm13.5,13.353c.887-2.476-1.993-5.224-7.181-7.079-5.153-1.842-9.124-1.539-10.007.935-.872,2.442,1.995,5.225,7.182,7.079C487.973,618.705,491.955,618.37,492.826,615.929Zm-13.152-14.336c3.12,1.115,5.827.171,6.664-2.169s-.661-4.785-3.779-5.9c-3.155-1.127-5.862-.181-6.7,2.158S476.521,600.467,479.674,601.593Zm11.9-8.364L475.7,587.557l.363-1.018,7.426,2.654,1.4-3.932,1.119.4-1.4,3.934,7.289,2.6Zm-1.981,13.782-1.119-.4,6.216-17.393,1.119.4-2.969,8.307,5.492,1.963L501.505,591l1.119.4-6.833,19.121-1.119-.4,3.3-9.222-5.492-1.963Z" fill="#fff"/>
      <path id="패스_5" data-name="패스 5" d="M509.738,620.488l17.284,13.366-5.834,7.545-.941-.727,5.175-6.691-16.344-12.639Zm23.309,11.518-.66.854-22.666-17.528.661-.853,10.9,8.433,2.995-3.872-7.8-6.034,7.069-9.139.939.727-2.73,3.53,14.635,11.318,2.73-3.531.94.728-7.069,9.138-7.772-6.011-2.995,3.873Zm-14.966-19.127L532.716,624.2l3.016-3.9L521.1,608.979Z" fill="#fff"/>
      <path id="패스_6" data-name="패스 6" d="M533.926,652.852l11.857,17.279-.89.611-12.509-18.228,5.64-3.871,11.246,16.388,3.325-2.281-11.306-16.477.86-.591,11.958,17.427-5.046,3.462-11.246-16.387ZM560.2,663.646l-.89.612L543.07,640.6l.891-.612ZM552.884,638.1c2.938-2.018,6.9.2,10.733,5.779s4.47,10.076,1.531,12.094c-2.969,2.037-6.933-.178-10.763-5.758S549.915,640.135,552.884,638.1Zm.673.979c-2.317,1.589-1.592,5.764,1.688,10.544s6.915,6.959,9.231,5.369c2.286-1.568,1.561-5.744-1.72-10.523S555.842,637.509,553.557,639.077Z" fill="#fff"/>
      <path id="패스_7" data-name="패스 7" d="M572.285,714.66a92.273,92.273,0,0,1-2.711-10.1l-11.949,1.871-.184-1.174,11.913-1.865c-.741-3.565-1.311-6.972-1.774-9.923l1.1-.427a154.882,154.882,0,0,0,4.549,21.365Zm17.907,1.057-31.4,4.92-.185-1.175,31.4-4.918Zm-11.4-21.349c3.734-.585,6.688,2.232,7.407,6.818.713,4.552-1.239,8.136-4.973,8.721s-6.724-2.225-7.437-6.776C573.075,698.543,575.063,694.953,578.8,694.368Zm.179,1.138c-2.953.463-4.722,3.582-4.115,7.457.6,3.841,3.241,6.269,6.192,5.807,2.916-.457,4.722-3.582,4.119-7.422C584.566,697.472,581.891,695.049,578.976,695.506Z" fill="#fff"/>
      <path id="패스_8" data-name="패스 8" d="M560.274,738.8l-3.05,19.38-1.068-.168,3.237-20.553,8.89,1.4-.185,1.173Zm14.8,25.688L574,764.324l.807-5.12L563.324,757.4l.185-1.174,23.612,3.717-.185,1.174-11.059-1.742Zm-4.9-20.924c.7-4.445,3.357-6.978,6.807-6.435s5.165,3.764,4.465,8.209c-.688,4.375-3.317,6.948-6.766,6.406S569.477,747.941,570.166,743.568Zm1.031.162c-.583,3.7.981,6.5,3.649,6.915,2.7.425,4.978-1.766,5.561-5.465.587-3.735-.9-6.52-3.608-6.946C574.132,737.814,571.785,740,571.2,743.73Zm11.121,11.3,2.928-18.6,1.067.167-1.372,8.713,4.338.683-.183,1.173-4.339-.683-1.372,8.712Z" fill="#fff"/>
      <path id="패스_9" data-name="패스 9" d="M532.6,805.748l-.89-.611L543.4,788.143l7.652,5.26-.673.979-6.762-4.65Zm17.339,9.215,8.483,5.833-.674.979-19.693-13.543.674-.978,10.32,7.1,4.467-6.5.89.613ZM546.771,804.7c3.239-2.229,7.549-3.546,11.438-2.4-2.75-3.245-3.322-7.875-2.438-11.767l1.138,0c-1.1,4.4-.095,10.113,4.058,12.968l1.541,1.061,4.467-6.5.89.614-4.467,6.494,3.8,2.611-.674.979-3.8-2.611-4.4,6.406-.889-.612,4.424-6.435-1.542-1.061c-3.973-2.732-9.485-1.324-13.107,1.34Z" fill="#fff"/>
      <path id="패스_10" data-name="패스 10" d="M520.242,817.836l-15.533,11.992-.659-.853,16.471-12.719,5.876,7.609-.94.726Zm-6.276,29.639-.66-.856,4.1-3.17-7.57-9.8.94-.726,14.5,18.781-.939.727-6.272-8.122Zm11.791-18.43c3.647-2.816,8.163-2.391,10.913,1.172,2.728,3.533,2.021,8.039-1.627,10.855s-8.185,2.362-10.912-1.173C521.38,836.337,522.109,831.861,525.757,829.045Zm.661.855a6.522,6.522,0,1,0,9.34,1.022A6.528,6.528,0,0,0,526.418,829.9Z" fill="#fff"/>
      <path id="패스_11" data-name="패스 11" d="M481.023,872.352l-10.671-29.944,1.119-.4,10.672,29.944Zm15.8-30.206c-5.663,2.018-13.43,4.786-19.792,8.277l-.449-.833c6.527-3.778,14.09-6.475,19.617-8.445ZM483.99,861.053c-1.438-4.037.761-7.84,5.373-9.485,4.647-1.654,8.754-.1,10.194,3.936s-.762,7.84-5.409,9.495C489.537,866.643,485.428,865.087,483.99,861.053Zm14.481-5.162c-1.149-3.221-4.812-4.707-8.745-3.3-3.9,1.39-5.8,4.856-4.651,8.077,1.161,3.256,4.812,4.707,8.712,3.316C497.721,862.578,499.631,859.146,498.471,855.891Z" fill="#fff"/>
      <path id="패스_12" data-name="패스 12" d="M413.5,857.265l.107-1.075,28.551,2.882-.108,1.074Zm.441,13.9,25.112,2.533-.108,1.075-12.108-1.221-.384,3.8-1.182-.12.383-3.8-11.82-1.194Zm12.605-.465c-6.2-.626-9.617-2.6-9.314-5.608.3-2.974,4.045-4.224,10.243-3.6,6.269.633,9.689,2.607,9.388,5.58C436.563,870.087,432.816,871.338,426.548,870.705Zm-8.585-21.783c.321-3.188,4.36-4.482,11.166-3.795s10.506,2.762,10.184,5.949c-.315,3.117-4.354,4.41-11.16,3.723S417.648,852.039,417.963,848.922Zm8.685,20.779c5.267.531,8.772-.489,9-2.747.224-2.22-3.005-3.921-8.271-4.452-5.194-.525-8.7.5-8.923,2.717C418.225,867.477,421.455,869.178,426.648,869.7Zm-7.466-20.656c-.241,2.364,3.34,4.173,9.072,4.752s9.6-.479,9.842-2.843c.244-2.436-3.34-4.21-9.071-4.788S419.426,846.609,419.182,849.045Z" fill="#fff"/>
    </g>
  </g>
</svg>
