<svg xmlns="http://www.w3.org/2000/svg" xmlns:xlink="http://www.w3.org/1999/xlink" width="162.166" height="35.77" viewBox="0 0 162.166 35.77">
  <defs>
    <radialGradient id="radial-gradient" cx="0.75" cy="0.3" r="1.033" gradientTransform="translate(0.006) scale(0.987 1)" gradientUnits="objectBoundingBox">
      <stop offset="0" stop-color="#008ed2"/>
      <stop offset="0.66" stop-color="#00398f"/>
      <stop offset="1" stop-color="#0072c0"/>
    </radialGradient>
    <radialGradient id="radial-gradient-2" cx="0.77" cy="0.58" r="0.951" gradientTransform="translate(-0.01) scale(1.021 1)" gradientUnits="objectBoundingBox">
      <stop offset="0" stop-color="#b9e6fb"/>
      <stop offset="0.63" stop-color="#00b8eb"/>
      <stop offset="1" stop-color="#88d5f8"/>
    </radialGradient>
  </defs>
  <g id="logo" transform="translate(-198.014 -352.595)">
    <g id="그룹_1" data-name="그룹 1" transform="translate(198.014 352.595)">
      <path id="패스_1" data-name="패스 1" d="M228.52,357.958a17.884,17.884,0,1,1-21.015-3.124l2.472-.183S219.413,349.757,228.52,357.958Z" transform="translate(-198.014 -352.745)" fill-rule="evenodd" fill="url(#radial-gradient)"/>
      <path id="패스_2" data-name="패스 2" d="M203.962,373.752a12.571,12.571,0,0,0,10.973,1.959,12.132,12.132,0,0,0,7.436-6.475c1.422-3.305.66-7.574-3.15-8.8-2.335-.75-5.173.327-7.009,1.789-1.515,1.207-3.126,3.026-5.329,2.234-1.722-.619-2.356-2.779-.881-5.359,1.463-2.559,4.593-5.044,9.579-5.39a18.429,18.429,0,0,1,12.987,4.1,17.9,17.9,0,0,0-21.018-3.124,14.377,14.377,0,0,0-6.109,6.428c-1.952,4.177-1.523,9.529,2.521,12.639Zm-3.616-12.021c-2.416,5.673-.64,12.652,4.955,15.82,5.1,2.891,12.19,2.537,16.631-1.769,1.43-1.387,2.522-3.481,4.278-4.383a2.74,2.74,0,0,1,2.7.012c1.405.939,1.451,2.662.939,4.271a11.408,11.408,0,0,1-2.8,4.364,16.528,16.528,0,0,1-7.617,4.532,17.958,17.958,0,0,1-15.2-2.737,15.332,15.332,0,0,1-5.053-17.587A17.782,17.782,0,0,1,200.346,361.731Z" transform="translate(-198.063 -352.595)" fill-rule="evenodd" fill="url(#radial-gradient-2)"/>
    </g>
    <path id="패스_3" data-name="패스 3" d="M364.387,361.924v-1.256l-8.862.006q0,3.32.005,6.639a1.521,1.521,0,0,0,.5,1.211,2.036,2.036,0,0,0,1.388.439l7.669-.005v-1.275l-6.868.005,0-5.76,6.169,0ZM289.4,371.967a1.128,1.128,0,0,0-1.159-1.086l-3.755,0,0-3,7.113-.005v-1.256l-3.043,0a3.411,3.411,0,0,0,.411-.646,4.734,4.734,0,0,0,.247-.719,7.191,7.191,0,0,0,.185-.744,4.43,4.43,0,0,0,.061-.726q0-1.234,0-2.468a1.129,1.129,0,0,0-1.16-1.085l-11.4.009v1.257l9.849-.008,0,2.369a11.225,11.225,0,0,1-.091,1.436,5.408,5.408,0,0,1-.338,1.328l-11.493.008v1.256l6.97,0,0,3-4.976,0v1.256l9.849-.008,0,4.558,2.735,0q0-2.364,0-4.727Zm69.805-.8H357.67q0,1.884,0,3.768a1.526,1.526,0,0,0,.536,1.247,2.13,2.13,0,0,0,1.4.438l10.507-.007v-1.256l-9.746.007,0-3.113a1.128,1.128,0,0,0-1.159-1.086Zm9.346-11.079a1.127,1.127,0,0,1,1.159,1.085q0,1.243,0,2.485l3.023,0v1.256l-3.023,0,.006,7.3-2.694,0q0-6.066-.009-12.131Zm-22.527.017h-1.441q.007,8.264.013,16.527l2.529,0-.008-10.695h1.85l.008,10.695h2.53q-.006-7.753-.012-15.507A1.059,1.059,0,0,0,350.4,360.1h-1.441q0,2.287,0,4.575h-1.85q0-1.778,0-3.556a1.058,1.058,0,0,0-1.089-1.019Zm-17.606.013-1.546,0q0,4.468.006,8.936l2.714,0v-2.494l3.023,0V365.3l-3.023,0v-1.451l3.023,0V362.6l-3.023,0v-1.384a1.136,1.136,0,0,0-1.168-1.093Zm-22.311.017h-1.44q.007,8.264.013,16.527h2.529l-.008-9.743h1.541l.008,9.743h2.528q-.006-7.753-.011-15.507a1.058,1.058,0,0,0-1.089-1.019h-1.441q0,2.763,0,5.527H307.2q0-2.254,0-4.507a1.058,1.058,0,0,0-1.089-1.019Zm-46.446,11.429h-1.535q0,1.723,0,3.446a1.532,1.532,0,0,0,.525,1.246,2.083,2.083,0,0,0,1.388.439l10.28-.008v-1.256l-9.5.008,0-2.79a1.128,1.128,0,0,0-1.159-1.086Zm9.12-11.4a1.128,1.128,0,0,1,1.16,1.085q0,1.4,0,2.79l3.022,0v1.274l-3.022,0,0,7-2.693,0q0-6.075-.009-12.15Zm66.469,1.062v1.508l2.96,0a13.231,13.231,0,0,1-.521,3.966,12.334,12.334,0,0,1-.851,2.173,9.285,9.285,0,0,1-1.079,1.678,10.433,10.433,0,0,1-1.161,1.212l1.566,1.524a5.162,5.162,0,0,0,1.047-.916,11.913,11.913,0,0,0,.965-1.239,10.685,10.685,0,0,0,.79-1.364,12.093,12.093,0,0,0,.545-1.292,13.04,13.04,0,0,0,1.564,1.936q.905.933,2.1,2.008l.965-1.275c-.453-.405-.865-.786-1.235-1.139s-.711-.716-1.028-1.084a10.917,10.917,0,0,1-.885-1.166,12.912,12.912,0,0,1-.8-1.434,11.2,11.2,0,0,0,.286-1.633q.1-.932.163-1.92h2.735l0-1.543-8.121.005Zm-10.571,8.389a5.786,5.786,0,0,0-1.87.288,4.9,4.9,0,0,0-1.521.845A4,4,0,0,0,320.22,372a3.24,3.24,0,0,0,0,2.925,4,4,0,0,0,1.071,1.227,4.791,4.791,0,0,0,1.523.851,6.383,6.383,0,0,0,3.731,0,4.692,4.692,0,0,0,1.531-.853,4.134,4.134,0,0,0,1.058-1.23,3.152,3.152,0,0,0,0-2.925,4.157,4.157,0,0,0-1.06-1.245,4.759,4.759,0,0,0-1.532-.843,5.8,5.8,0,0,0-1.862-.286Zm0,1.256a1.645,1.645,0,0,1,.885.241,2.424,2.424,0,0,1,.68.619,3.061,3.061,0,0,1,.422.835,2.753,2.753,0,0,1-.44,2.61,2.162,2.162,0,0,1-.669.585,1.759,1.759,0,0,1-.873.225,1.814,1.814,0,0,1-.884-.214,2.2,2.2,0,0,1-.678-.574,2.741,2.741,0,0,1-.422-.817,2.886,2.886,0,0,1-.156-.924,3.017,3.017,0,0,1,.144-.906,2.832,2.832,0,0,1,.411-.834,2.283,2.283,0,0,1,.678-.611,1.727,1.727,0,0,1,.9-.234ZM314.664,364.6a3.586,3.586,0,0,1,.358-1.6,3.971,3.971,0,0,1,1.1-1.329,5.353,5.353,0,0,1,1.6-.917,6.191,6.191,0,0,1,3.835,0,5.251,5.251,0,0,1,1.614.915,3.981,3.981,0,0,1,1.08,1.327,3.713,3.713,0,0,1,0,3.194,4,4,0,0,1-1.079,1.329,5.218,5.218,0,0,1-1.612.916,6.176,6.176,0,0,1-3.835,0,5.36,5.36,0,0,1-1.6-.914,3.974,3.974,0,0,1-1.1-1.327,3.582,3.582,0,0,1-.361-1.6Zm7.257-.023a3.37,3.37,0,0,0-.165-1.032,3.5,3.5,0,0,0-.454-.924,2.239,2.239,0,0,0-.72-.664,1.852,1.852,0,0,0-.945-.25,1.883,1.883,0,0,0-.977.252,2.333,2.333,0,0,0-.707.665,2.835,2.835,0,0,0-.431.915,3.867,3.867,0,0,0-.144,1.04,3.971,3.971,0,0,0,.145,1.077,2.88,2.88,0,0,0,.433.915,2.325,2.325,0,0,0,.709.664,1.882,1.882,0,0,0,.977.25,1.854,1.854,0,0,0,.945-.252,2.247,2.247,0,0,0,.719-.665,3.478,3.478,0,0,0,.452-.924,3.409,3.409,0,0,0,.163-1.068Zm-24.582-2.908,3.742,0V360.5l-3.742,0v1.166Zm1.873,3.318a1.339,1.339,0,0,1,.772.233,2.081,2.081,0,0,1,.566.592,3.137,3.137,0,0,1,.36.78,2.9,2.9,0,0,1,.134.834,3.143,3.143,0,0,1-.123.852,2.853,2.853,0,0,1-.369.8,2,2,0,0,1-.565.582,1.371,1.371,0,0,1-.771.225,1.438,1.438,0,0,1-.811-.224,2.059,2.059,0,0,1-.588-.582,2.665,2.665,0,0,1-.339-.789,3.377,3.377,0,0,1-.113-.861,3.1,3.1,0,0,1,.122-.853,2.539,2.539,0,0,1,.369-.78,2.225,2.225,0,0,1,.586-.584,1.366,1.366,0,0,1,.77-.225Zm-4.278-2.1v1.22l2.673,0a6.182,6.182,0,0,0-1.993,1.526,2.824,2.824,0,0,0-.656,1.8,3.226,3.226,0,0,0,.309,1.4,3.773,3.773,0,0,0,.946,1.184,4.2,4.2,0,0,0,1.348.806,4.843,4.843,0,0,0,1.655.269,4.652,4.652,0,0,0,1.645-.272,4.051,4.051,0,0,0,1.315-.808,4.538,4.538,0,0,0,.956-1.175,2.9,2.9,0,0,0,.338-1.41,2.792,2.792,0,0,0-.67-1.794,6.32,6.32,0,0,0-1.985-1.524l2.652,0v-1.22l-8.532.006Zm-37.061-1.729,4.666,0v-1.166l-4.667,0,0,1.167Zm-2.837.845v1.238h2.653a5.6,5.6,0,0,0-1.5,1.49,2.9,2.9,0,0,0-.492,1.58,3.173,3.173,0,0,0,.319,1.408,3.48,3.48,0,0,0,1,1.193,5.054,5.054,0,0,0,1.471.816,5.172,5.172,0,0,0,1.717.276,5.3,5.3,0,0,0,1.716-.27,4.682,4.682,0,0,0,1.47-.826,3.7,3.7,0,0,0,.986-1.194,3.106,3.106,0,0,0,.328-1.409,2.84,2.84,0,0,0-.515-1.6,5.781,5.781,0,0,0-1.5-1.471l2.693,0V362l-10.342.008Zm5.162,1.773a1.462,1.462,0,0,1,.812.233,2.409,2.409,0,0,1,.628.591,3.091,3.091,0,0,1,.391.808,2.9,2.9,0,0,1,.145.9,3.105,3.105,0,0,1-.133.9,2.778,2.778,0,0,1-.4.826,2.084,2.084,0,0,1-.616.593,1.582,1.582,0,0,1-1.654,0,2.3,2.3,0,0,1-.628-.61,3.142,3.142,0,0,1-.38-.825,2.951,2.951,0,0,1,0-1.759,2.86,2.86,0,0,1,.38-.807,2.3,2.3,0,0,1,.627-.611A1.5,1.5,0,0,1,260.2,363.779Z" transform="translate(-12.556 -1.824)" fill="#004485"/>
    <g id="그룹_2" data-name="그룹 2" transform="translate(244.215 378.4)">
      <path id="패스_4" data-name="패스 4" d="M257.34,386.955h.969v2.035l1.744-2.035h1.19l-1.986,2.232,2.069,2.5H260.06l-1.737-2.2h-.014v2.2h-.969Z" transform="translate(-257.34 -386.874)" fill="#004485"/>
      <path id="패스_5" data-name="패스 5" d="M266.757,386.848a2.45,2.45,0,1,1-2.367,2.434A2.234,2.234,0,0,1,266.757,386.848Zm0,4.15c.989,0,1.356-.861,1.356-1.716,0-.834-.394-1.688-1.356-1.688s-1.357.854-1.357,1.688C265.4,390.137,265.767,391,266.757,391Z" transform="translate(-259.079 -386.848)" fill="#004485"/>
      <path id="패스_6" data-name="패스 6" d="M272.974,386.955h1.045c1.038,0,2.277-.034,2.277,1.282a1.091,1.091,0,0,1-1,1.1v.014c.263.02.415.278.512.487l.775,1.852h-1.08l-.581-1.479c-.139-.352-.263-.487-.671-.487h-.311v1.966h-.969Zm.969,2.021h.318c.478,0,1.024-.068,1.024-.658,0-.57-.539-.618-1.024-.618h-.318Z" transform="translate(-261.196 -386.874)" fill="#004485"/>
      <path id="패스_7" data-name="패스 7" d="M279.932,386.955h2.852v.746H280.9v1.167h1.723v.746H280.9v1.33h1.9v.746h-2.865Z" transform="translate(-262.912 -386.874)" fill="#004485"/>
      <path id="패스_8" data-name="패스 8" d="M287.5,386.955h1.093l1.9,4.734h-1.073L289,390.6h-1.959l-.422,1.085h-1Zm.533.95h-.014l-.7,1.953h1.413Z" transform="translate(-264.313 -386.874)" fill="#004485"/>
      <path id="패스_9" data-name="패스 9" d="M299.989,386.848a2.45,2.45,0,1,1-2.368,2.434A2.234,2.234,0,0,1,299.989,386.848Zm0,4.15c.988,0,1.356-.861,1.356-1.716,0-.834-.394-1.688-1.356-1.688s-1.357.854-1.357,1.688C298.632,390.137,299,391,299.989,391Z" transform="translate(-267.274 -386.848)" fill="#004485"/>
      <path id="패스_10" data-name="패스 10" d="M309.752,391.595a4.972,4.972,0,0,1-1.1.15c-1.564,0-2.651-.767-2.651-2.368a2.374,2.374,0,0,1,2.651-2.529,3.273,3.273,0,0,1,1.094.2l-.069.8a2.024,2.024,0,0,0-1.046-.251,1.594,1.594,0,0,0-1.618,1.715,1.574,1.574,0,0,0,1.64,1.689,2.746,2.746,0,0,0,1.058-.2Z" transform="translate(-269.341 -386.848)" fill="#004485"/>
      <path id="패스_11" data-name="패스 11" d="M313.164,386.955h2.85v.746h-1.882v1.167h1.723v.746h-1.723v1.33h1.9v.746h-2.865Z" transform="translate(-271.108 -386.874)" fill="#004485"/>
      <path id="패스_12" data-name="패스 12" d="M320.728,386.955h1.093l1.9,4.734h-1.072l-.415-1.085h-1.959l-.422,1.085h-1Zm.533.95h-.014l-.7,1.953h1.411Z" transform="translate(-272.509 -386.874)" fill="#004485"/>
      <path id="패스_13" data-name="패스 13" d="M327.31,386.955H328.5l1.841,3.541h.014v-3.541h.927v4.734H330.1l-1.848-3.54h-.014v3.54h-.927Z" transform="translate(-274.597 -386.874)" fill="#004485"/>
      <path id="패스_14" data-name="패스 14" d="M339.033,386.955h2.686v.746H340v1.167h1.633v.746H340v2.076h-.97Z" transform="translate(-277.488 -386.874)" fill="#004485"/>
      <path id="패스_15" data-name="패스 15" d="M346.917,386.848a2.45,2.45,0,1,1-2.366,2.434A2.235,2.235,0,0,1,346.917,386.848Zm0,4.15c.991,0,1.357-.861,1.357-1.716,0-.834-.394-1.688-1.357-1.688s-1.356.854-1.356,1.688C345.561,390.137,345.928,391,346.917,391Z" transform="translate(-278.849 -386.848)" fill="#004485"/>
      <path id="패스_16" data-name="패스 16" d="M353.2,386.955h.97v2.733c0,.808.262,1.336,1,1.336s1-.529,1-1.336v-2.733h.969v3.026c0,1.268-.734,1.791-1.972,1.791s-1.973-.523-1.973-1.791Z" transform="translate(-280.981 -386.874)" fill="#004485"/>
      <path id="패스_17" data-name="패스 17" d="M361.047,386.955h1.19l1.841,3.541h.014v-3.541h.927v4.734h-1.183l-1.848-3.54h-.014v3.54h-.927Z" transform="translate(-282.917 -386.874)" fill="#004485"/>
      <path id="패스_18" data-name="패스 18" d="M368.978,386.955H370.3c1.48,0,2.789.489,2.789,2.368s-1.309,2.366-2.789,2.366h-1.321Zm.969,3.988h.539a1.622,1.622,0,0,0,0-3.243h-.539Z" transform="translate(-284.873 -386.874)" fill="#004485"/>
      <path id="패스_19" data-name="패스 19" d="M378.066,386.955h1.093l1.9,4.734h-1.072l-.415-1.085h-1.959l-.422,1.085h-1Zm.533.95h-.014l-.7,1.953H379.3Z" transform="translate(-286.65 -386.874)" fill="#004485"/>
      <path id="패스_20" data-name="패스 20" d="M384.691,387.7h-1.384v-.746h3.738v.746H385.66v3.988h-.969Z" transform="translate(-288.407 -386.874)" fill="#004485"/>
      <path id="패스_21" data-name="패스 21" d="M390.211,386.955h.97v4.734h-.97Z" transform="translate(-290.11 -386.874)" fill="#004485"/>
      <path id="패스_22" data-name="패스 22" d="M396.167,386.848a2.45,2.45,0,1,1-2.366,2.434A2.235,2.235,0,0,1,396.167,386.848Zm0,4.15c.991,0,1.357-.861,1.357-1.716,0-.834-.394-1.688-1.357-1.688s-1.356.854-1.356,1.688C394.81,390.137,395.178,391,396.167,391Z" transform="translate(-290.995 -386.848)" fill="#004485"/>
      <path id="패스_23" data-name="패스 23" d="M402.43,386.955h1.19l1.84,3.541h.014v-3.541h.927v4.734h-1.183l-1.848-3.54h-.014v3.54h-.927Z" transform="translate(-293.123 -386.874)" fill="#004485"/>
    </g>
  </g>
</svg>
