<svg id="sns_naver" xmlns="http://www.w3.org/2000/svg" width="24.86" height="23.058" viewBox="0 0 24.86 23.058">
  <path id="패스_47" data-name="패스 47" d="M650.135,314.51a.856.856,0,1,0,.857.855A.855.855,0,0,0,650.135,314.51Z" transform="translate(-644.711 -306.002)" fill="rgba(255,255,255,0.7)"/>
  <path id="패스_48" data-name="패스 48" d="M697.972,314a.922.922,0,1,0,.922.922A.922.922,0,0,0,697.972,314Z" transform="translate(-684.092 -305.582)" fill="rgba(255,255,255,0.7)"/>
  <path id="패스_49" data-name="패스 49" d="M644.794,266.06H626.586a3.326,3.326,0,0,0-3.326,3.326v10.807a3.326,3.326,0,0,0,3.326,3.326h6.431l2.188,5.154s.151.446.514.446h0c.365,0,.515-.446.515-.446l2.188-5.154h6.373a3.326,3.326,0,0,0,3.326-3.326V269.386A3.326,3.326,0,0,0,644.794,266.06Zm-13.725,9.551a2.058,2.058,0,0,1-2.053,2.032,1.708,1.708,0,0,1-1.236-.523v.357h-1.487v-6.134c-.005,0-.007,0,0,0v0c.093.014,1.487,0,1.487,0v2.346c.349-.6,1.361-.587,1.361-.587A2.177,2.177,0,0,1,631.069,275.611Zm2.62-2.325v4.2h-1.456v-4.158c0-.565-.7-.723-.7-.723v-1.466A2.014,2.014,0,0,1,633.689,273.286Zm3.451,4.36a2.254,2.254,0,1,1,2.441-2.246A2.35,2.35,0,0,1,637.14,277.646Zm7.976,0a2.077,2.077,0,0,1-2.148,2.134h-.66V278.4h.4s.911.084.9-1.321c0,0-.177.569-1.456.569a1.919,1.919,0,0,1-1.812-1.9v-.671a2.07,2.07,0,0,1,2.032-1.979,1.482,1.482,0,0,1,1.268.565v-.45h1.477Z" transform="translate(-623.26 -266.06)" fill="rgba(255,255,255,0.7)"/>
  <path id="패스_50" data-name="패스 50" d="M730.311,314.12a.9.9,0,1,0,.9.9A.9.9,0,0,0,730.311,314.12Z" transform="translate(-710.77 -305.681)" fill="rgba(255,255,255,0.7)"/>
</svg>
