<svg xmlns="http://www.w3.org/2000/svg" width="26.167" height="18.317" viewBox="0 0 26.167 18.317">
  <path id="sns_youtube" d="M157.23,236.111a3.278,3.278,0,0,0-2.313-2.313c-2.041-.548-10.223-.548-10.223-.548s-8.184,0-10.223.548a3.28,3.28,0,0,0-2.314,2.313,36.589,36.589,0,0,0,0,12.6,3.275,3.275,0,0,0,2.314,2.313c2.041.546,10.223.546,10.223.546s8.182,0,10.223-.546a3.278,3.278,0,0,0,2.313-2.313,36.589,36.589,0,0,0,0-12.6Zm-15.154,10.223v-7.851l6.8,3.926Z" transform="translate(-131.61 -233.25)" fill="rgba(255,255,255,0.7)"/>
</svg>
