<svg id="sns_insta" xmlns="http://www.w3.org/2000/svg" width="22.757" height="22.745" viewBox="0 0 22.757 22.745">
  <g id="그룹_14" data-name="그룹 14" transform="translate(0 0)">
    <path id="SVGID_1_" d="M12.965,9.077a8.182,8.182,0,0,0-2.764.53,5.733,5.733,0,0,0-2,1.317,5.458,5.458,0,0,0-1.3,2.015,8.512,8.512,0,0,0-.53,2.764c-.052,1.214-.065,1.6-.065,4.688s.026,3.474.077,4.688a8.032,8.032,0,0,0,.53,2.751,5.665,5.665,0,0,0,1.317,2.015,5.458,5.458,0,0,0,2.015,1.3A8.512,8.512,0,0,0,13,31.68c1.214.052,1.6.065,4.688.065s3.474-.013,4.688-.077a8.182,8.182,0,0,0,2.764-.53,5.665,5.665,0,0,0,2.015-1.317,5.458,5.458,0,0,0,1.3-2.015,8.513,8.513,0,0,0,.53-2.764c.052-1.214.065-1.6.065-4.688s-.013-3.474-.077-4.688a8.182,8.182,0,0,0-.53-2.764,5.665,5.665,0,0,0-1.317-2.015,5.458,5.458,0,0,0-2.015-1.3,8.513,8.513,0,0,0-2.764-.53C21.127,9.013,20.74,9,17.653,9s-3.474.026-4.688.077m.129,20.549a6.307,6.307,0,0,1-2.105-.387,3.8,3.8,0,0,1-2.157-2.157,6.293,6.293,0,0,1-.4-2.105c-.052-1.2-.065-1.563-.077-4.6s0-3.4.052-4.6a6.307,6.307,0,0,1,.387-2.105,3.8,3.8,0,0,1,2.157-2.157,6.65,6.65,0,0,1,2.105-.4c1.2-.052,1.563-.065,4.585-.077s3.4,0,4.6.052a6.307,6.307,0,0,1,2.105.387,3.419,3.419,0,0,1,1.3.852,3.52,3.52,0,0,1,.852,1.3,6.649,6.649,0,0,1,.4,2.105c.052,1.2.065,1.563.077,4.585s0,3.4-.052,4.6a6.484,6.484,0,0,1-.387,2.118A3.8,3.8,0,0,1,24.382,29.2a6.65,6.65,0,0,1-2.105.4c-1.2.052-1.563.065-4.6.077s-3.384,0-4.585-.052M22.367,14.3a1.363,1.363,0,1,0,1.356-1.369A1.367,1.367,0,0,0,22.367,14.3M11.841,20.379a5.838,5.838,0,1,0,5.825-5.851,5.832,5.832,0,0,0-5.825,5.851m2.041,0a3.791,3.791,0,1,1,3.8,3.784,3.8,3.8,0,0,1-3.8-3.784" transform="translate(-6.3 -9)" fill="rgba(255,255,255,0.7)"/>
  </g>
</svg>
